<?xml version="1.0" encoding="utf-8"?>
<!-- Generator: Adobe Illustrator 22.0.1, SVG Export Plug-In . SVG Version: 6.00 Build 0)  -->
<svg version="1.1" id="Calque_1" xmlns="http://www.w3.org/2000/svg" xmlns:xlink="http://www.w3.org/1999/xlink" x="0px" y="0px"
	 viewBox="0 0 432 432" style="enable-background:new 0 0 432 432;" xml:space="preserve">
<style type="text/css">
	.st0{fill:#B3A6AD;}
	.st1{fill:#B6B155;}
	.st2{fill:#990033;}
	.st3{fill:#660A1E;}
	.st4{fill:#A7A6AA;}
	.st5{fill:#EF798A;}
	.st6{fill:#FFB2B2;}
	.st7{fill:#A70808;}
	.st8{fill:#DF4646;}
	.st9{fill:#FF7878;}
	.st10{fill:#F2A297;}
	.st11{fill:#BA1717;}
	.st12{fill:#543A3C;}
	.st13{fill:#CA1542;}
	.st14{fill:#E74C6E;}
	.st15{fill:#006837;}
	.st16{fill:#004924;}
	.st17{fill:#D33757;}
	.st18{fill:#E06581;}
	.st19{fill:#014724;}
	.st20{fill:#E14666;}
	.st21{fill:#ABDFD3;}
	.st22{fill:#C5EFE4;}
	.st23{fill:#DC4160;}
	.st24{fill:#A888AD;}
	.st25{fill:#B99BBF;}
	.st26{fill:#F8A362;}
	.st27{fill:#F9B587;}
	.st28{fill:#F2F2F2;}
	.st29{fill:#FDFFFE;}
	.st30{fill:#F2D668;}
	.st31{fill:#F9E4A5;}
	.st32{fill:#F5A6DF;}
	.st33{fill:#F4CEEB;}
	.st34{fill:#CCCCCC;}
	.st35{fill:#FBB03B;}
	.st36{fill:#FFFFFF;}
	.st37{fill:#ECCDD2;}
	.st38{fill:#8AD7AB;}
	.st39{fill:#8FC8E2;}
	.st40{fill:#D3CE94;}
	.st41{fill:#F9CFCF;}
	.st42{fill:#EDE9C3;}
	.st43{fill:#9BD6EA;}
	.st44{fill:#F8D9C4;}
	.st45{fill:#EB678B;}
	.st46{fill:#A5394C;}
	.st47{fill:#DD726C;}
	.st48{fill:#E5847A;}
	.st49{fill:#EF8A7F;}
	.st50{fill:#3CBC91;}
	.st51{fill:#8CC63F;}
	.st52{fill:#B78D5C;}
	.st53{fill:#2A2A2B;}
	.st54{fill:#EBCEC6;}
	.st55{fill:#F49090;}
	.st56{fill:#B3D8E8;}
	.st57{fill:#EFE6E4;}
	.st58{fill:#FBD8E3;}
	.st59{fill:#E48397;}
	.st60{fill:#B2E6F9;}
	.st61{fill:#42210B;}
	.st62{fill:#E0E0E0;}
	.st63{fill:#9D6D47;}
	.st64{fill:#EFD1B4;}
	.st65{fill:#0071BC;}
	.st66{fill:#679CBA;}
	.st67{fill:#DBDCDD;}
	.st68{fill:#DDB28E;}
	.st69{fill:#C69C6D;}
	.st70{fill:#603813;}
	.st71{fill:#8C6239;}
	.st72{fill:#E9EAE4;}
	.st73{fill:#F7931E;}
	.st74{fill:#754C24;}
	.st75{fill:#A67C52;}
	.st76{fill:#9E1E28;}
	.st77{fill:#F15A24;}
	.st78{fill:#E04819;}
	.st79{fill:#009245;}
	.st80{fill:#00552B;}
	.st81{fill:#84821B;}
	.st82{fill:#CD271F;}
	.st83{fill:#BB8130;}
	.st84{fill:#BBBABF;}
	.st85{fill:#E0E0E2;}
	.st86{fill:#C79359;}
	.st87{fill:#BA844F;}
	.st88{fill:#29ABE2;}
	.st89{fill:#EEB752;}
	.st90{fill:#A8B0B2;}
	.st91{fill:#035684;}
	.st92{fill:#EFBF73;}
	.st93{fill:#D3A272;}
	.st94{fill:#C3C8C9;}
	.st95{fill:#EBDCC9;}
	.st96{fill:#EAD696;}
	.st97{fill:#E57ACC;}
	.st98{fill:#8D5F96;}
	.st99{fill:#FFD9E4;}
	.st100{fill:#60BA84;}
	.st101{fill:#CCEDE5;}
	.st102{fill:#E8E8E8;}
	.st103{fill:#F9D2D2;}
	.st104{fill:#B9B9BA;}
	.st105{fill:#939393;}
	.st106{fill:#62612A;}
	.st107{fill:#79484E;}
	.st108{fill:#C2BE5C;}
	.st109{fill:#F1C3A2;}
	.st110{fill:#B2625C;}
	.st111{fill:#E1AE9D;}
	.st112{fill:#7597A0;}
	.st113{fill:#F2DBD5;}
	.st114{fill:#B27C62;}
	.st115{fill:#E6E6E6;}
	.st116{fill:#AF8864;}
	.st117{fill:#F1E9DF;}
	.st118{fill:#9E6A56;}
	.st119{fill:#2E3192;}
	.st120{fill:#EAEAEA;}
	.st121{fill:#1B1464;}
	.st122{fill:#EAE5E6;}
	.st123{fill:#7F9BEA;}
	.st124{fill:#EEBCC5;}
	.st125{fill:#DB8E98;}
	.st126{fill:#B58187;}
	.st127{fill:#80424C;}
	.st128{fill:#F3EED0;}
	.st129{fill:#CCD8B0;}
	.st130{fill:#46653B;}
	.st131{fill:#345129;}
	.st132{fill:#C9A6AC;}
	.st133{fill:#D6B6BA;}
	.st134{fill:#DE7139;}
	.st135{fill:#F2CB56;}
	.st136{fill:#DE3A55;}
	.st137{fill:#CD9586;}
	.st138{fill:#B47468;}
	.st139{fill:#F5DCD8;}
	.st140{fill:#C4BCBF;}
	.st141{fill:#E0B182;}
	.st142{fill:#9B6B61;}
	.st143{fill:#DBB89B;}
	.st144{fill:#DED2D3;}
	.st145{fill:#7D6364;}
	.st146{fill:#F1A3A1;}
	.st147{fill:#B3B3B3;}
	.st148{fill:#F9CEBE;}
	.st149{fill:#142738;}
	.st150{fill:#911928;}
	.st151{fill:#A32F4E;}
	.st152{fill:#7A0118;}
	.st153{fill:#DAE576;}
	.st154{fill:#E87F38;}
	.st155{fill:#F47621;}
	.st156{fill:#BC5B1B;}
	.st157{fill:#E6EF6A;}
	.st158{fill:#7C0101;}
	.st159{fill:#6DA84A;}
	.st160{fill:#83AF6E;}
	.st161{fill:#39B54A;}
	.st162{fill:#812791;}
	.st163{fill:#FC540D;}
	.st164{fill:#DD4410;}
	.st165{fill:#D3CE6A;}
	.st166{fill:#F2C8AD;}
	.st167{fill:#EFB58E;}
	.st168{fill:#F27622;}
	.st169{fill:#8DA34F;}
	.st170{fill:#ACBF77;}
	.st171{fill:#D6C188;}
	.st172{fill:#E5CED4;}
	.st173{fill:#15104F;}
	.st174{fill:#E5E3E3;}
</style>
<g>
	<g>
		<g>
			<path d="M316.7,247.9c1.1-0.3,2-0.6,3-0.7c4.3-0.7,8.3,0,11.9,2.4c3.7,2.4,6.1,5.9,7.7,10c0.4,1,0.7,2.1,1,3.1
				c0.1,0.3,0.2,0.6,0.3,1c0.3-0.1,0.6-0.2,0.9-0.3c2.4-0.9,4.9-1.5,7.5-1.7c3.5-0.4,6.9,0.1,10,1.6c5,2.4,8.8,5.9,10.5,11.3
				c2.5,7.7,1.5,15-3.2,21.7c-2.4,3.4-5.5,6.3-8.8,8.9c-3.6,2.9-7.6,5.3-11.7,7.4c-7.8,4-15.8,7.4-24.2,10.1c-2.6,0.8-5.3,1.5-8,2.3
				c-0.2,0.1-0.5,0.1-0.8,0.2c0,0.7-0.1,1.5-0.1,2.2c-0.1,3.5-0.2,6.9-0.7,10.3c-0.3,2-0.7,4.1-1.5,6c-0.7,1.8-1.8,3.2-3.3,4.4
				c-2.9,2.3-6.2,4-9.7,5.4c-4.5,1.7-9,3.2-13.7,3.8c-3.1,0.4-6.2,0.8-9.3,1.1c-4.5,0.5-9,0.6-13.5,0.6c-4.3,0-8.5-0.3-12.8-0.8
				c-6.1-0.7-12.1-1.9-18-3.6c-3.7-1-7.2-2.4-10.4-4.6c-1.6-1.1-3.1-2.3-4.4-3.8c-1.8-2-2.8-4.3-2.9-7c-0.2-3.1-0.3-6.3-0.3-9.4
				c-0.1-10.5-0.1-21-0.2-31.5c0-7.3,0-14.7,0-22c0-2.9,0-5.8,0.1-8.7c0.1-4,0.2-8,0.3-12c0.1-3.3,0.2-6.5,0.3-9.8
				c0-1.6-0.1-3.2-0.1-4.8c-0.1-3.6,0.1-7.2,0.3-10.8c0-0.6,0.1-1.2,0-1.8c-0.1-1.4,0.5-2.7,1.3-3.8c0.9-1.1,1.9-2,3.1-2.8
				c2.9-1.9,6.1-3.1,9.4-4c5.1-1.4,10.3-2.3,15.6-2.7c2.5-0.2,5-0.3,7.5-0.5c5.3-0.3,10.6-0.4,15.9-0.3c3.6,0.1,7.1,0.3,10.7,0.6
				c4.2,0.4,8.3,0.8,12.5,1.4c6.3,0.8,12.4,2.1,18.4,4.2c1.3,0.4,2.5,1,3.7,1.7c3,1.6,4.8,4.3,5.9,7.4c0.5,1.3,0.5,2.7,0.5,4.1
				c0.1,1.9,0.1,3.8,0,5.8c0,1.5-0.2,2.9-0.4,4.4C316.8,245.4,316.8,246.6,316.7,247.9z M313.2,314c0.3-0.1,0.5-0.1,0.7-0.1
				c0.7-0.2,1.4-0.4,2.1-0.6c6.7-1.8,13.4-3.8,19.9-6.2c4.5-1.6,8.9-3.7,13-6.3c2.9-1.9,5.4-4.2,7.5-7c2.4-3.3,3.4-6.9,3-10.9
				c-0.4-3.4-1.9-6.2-5-7.9c-2.5-1.4-5.3-2-8.2-2c-2.6-0.1-5.1,0.6-7.5,1.4c-1.4,0.5-2.8,1.1-4.2,1.6c-1.8,0.7-2.6,0.1-2.6-1.7
				c0-2.9-0.8-5.6-1.8-8.3c-0.4-1.2-1.1-2.3-1.9-3.2c-1.5-1.7-3.3-2.8-5.5-3.1c-2.3-0.4-4.4,0.2-6.4,1.1c-0.3,0.1-0.3,0.3-0.4,0.6
				c-0.1,1.9-0.2,3.8-0.4,5.7c-0.2,3.7-0.4,7.4-0.6,11.2c-0.1,2.7-0.2,5.5-0.3,8.2c-0.2,3.3-0.3,6.6-0.5,9.8
				c-0.1,2.3-0.2,4.6-0.3,6.9c-0.1,3.2-0.3,6.3-0.4,9.5C313.3,313,313.2,313.4,313.2,314z M240.5,337.1c-0.9-0.4-1.5-0.7-2.2-0.9
				c-1.3-0.4-2.3-1.1-3.2-2.1c-0.9-0.9-1.7-1.9-2.5-2.9c-0.6-0.8-1-0.9-1.9-0.5c-0.2,0.1-0.4,0.2-0.5,0.2c-1.6,0.7-3.2,0.7-4.8,0
				c-0.6-0.3-1.3-0.6-1.9-0.9c-0.2-0.1-0.4-0.2-0.7-0.3c-0.6-0.2-1.1-0.1-1.3,0.5c-0.5,1.2-1.4,1.8-2.5,2.3
				c-0.6,0.2-1.3,0.4-1.9,0.6c-0.4,0.1-0.8,0.2-1.2,0.3c-0.3,0.1-0.6,0.3-0.6,0.7c0,0.4,0.2,0.6,0.5,0.8c0.2,0.1,0.5,0.2,0.7,0.3
				c0.4,0.2,0.9,0.4,1.3,0.7c1.2,0.7,1.9,1.8,2,3.2c0,0.4,0.1,0.7,0.1,1.1c0.1,0.8,0.6,1.1,1.4,0.9c0.3-0.1,0.5-0.2,0.8-0.3
				c0.8-0.3,1.6-0.6,2.4-0.8c2.1-0.6,3.9-0.1,5.4,1.5c0.8,0.9,1.3,0.8,2.2,0c0.6-0.6,1.2-1.3,1.9-1.9c0.7-0.7,1.6-1.3,2.5-1.7
				c0.5-0.2,0.9-0.3,1.4,0c2,1.1,4.1,2.1,6.1,3.2c0.5,0.3,1,0.6,1.4,1c3.1,2.8,6.6,5,10.2,7.1c1.1,0.6,2.2,1.2,3.3,1.8
				c0.2,0.1,0.5,0.3,0.8,0.3c0.2,0.1,0.5,0.1,0.7,0c0.1-0.1,0.2-0.5,0.1-0.7c-0.1-0.4-0.3-0.8-0.6-1.1c-0.3-0.4-0.7-0.7-1.1-1
				c-1.5-1.1-2.4-2.7-3.2-4.4c-0.3-0.6-0.4-1.3-0.3-2c0.1-0.8,0.3-1.6,0.5-2.4c0.6-1.6,1.7-2.7,3.5-2.8c0.4,0,0.8-0.1,1.2-0.1
				c0.8,0,1.6,0,2.4-0.1c1.4,0,1.9-0.8,1.6-2.1c-0.1-0.5-0.3-0.9-0.4-1.4c-0.8-2.8,0.4-5.7,3.1-6.9c0.6-0.3,1.3-0.5,2-0.7
				c1.4-0.5,1.7-1.3,1.1-2.6c-0.2-0.5-0.4-0.9-0.7-1.3c-1.1-2-1.1-3.9-0.3-6c0.7-1.8,1.8-3.2,3.2-4.5c1.1-1,1.1-1.7,0.1-2.9
				c-0.4-0.5-0.9-1-1.4-1.5c-1.1-1.3-1.7-2.7-1.7-4.4c0-1.1,0-2.3,0-3.4c0-0.8-0.3-1.3-0.8-1.4c-0.5-0.2-0.9,0.1-1.4,0.8
				c-0.8,1.1-1.6,2.2-2.5,3.2c-1.2,1.4-2.7,2.2-4.6,2.1c-0.3,0-0.6,0-0.9,0.1c-1,0.2-1.3,0.6-1.2,1.6c0.4,2.5-0.1,4.8-1.3,7
				c-1.2,2.3-2.9,4.2-5.5,5.1c-1.1,0.4-1.3,0.9-0.8,2c0.7,1.5,1.1,3.1,1.3,4.7c0.2,1.7-0.1,3.2-1.3,4.5c-0.4,0.5-0.8,1-1.3,1.4
				c-0.6,0.6-0.7,1.3-0.3,2.1c0.3,0.6,0.6,1.2,0.9,1.8c1.1,2.2,1.9,4.4,2.5,6.8c0.3,1.1,0.4,2.2,0.6,3.3c-0.3,0-0.4-0.1-0.5-0.3
				c-2.6-2.6-4.6-5.5-6-8.9c-1.3-3.1-2.1-6.4-2-9.8c0.1-2.9,0.4-5.9,0.6-8.8c0-0.5,0.1-1,0.1-1.5c2.2-0.6,3.3-2.3,3.1-4.3
				c-0.1-1-0.6-1.9-1.6-2.3c-1-0.4-1.9,0-2.7,0.7c-0.7,0.7-1,1.5-1.3,2.4c-0.2,0.8-0.1,1.6,0.4,2.2c0.2,0.3,0.3,0.6,0.2,1
				c-0.2,1.6-0.4,3.2-0.6,4.8c-0.1,0.9-0.2,1.8-0.3,2.8c-1.4-1.5-2.9-4.5-3.7-7.6c0.1-0.2,0.3-0.3,0.4-0.5c0.9-1.5,0.2-3.8-1.3-4.5
				c-1.1-0.5-2-0.1-2.4,1c-0.5,1.3,0.2,3.3,1.4,4.1c0.3,0.2,0.5,0.5,0.6,0.8c0.4,1.1,0.7,2.2,1.1,3.2c0.8,2,2,3.7,3.4,5.3
				c0.3,0.3,0.4,0.7,0.4,1.1c0,4.3,0.9,8.3,2.8,12.1c0.1,0.2,0.2,0.5,0.3,0.7c-0.3-0.1-0.5-0.3-0.7-0.5c-3-3.1-5.6-6.5-8.1-9.9
				c-5.7-7.7-8.5-16.4-8.9-25.9c0-0.3,0-0.6,0.2-0.9c1.1-1.7,2.5-3.2,4.3-4.1c0.3-0.2,0.6-0.3,0.9-0.5c0.6-0.4,0.7-1,0.3-1.6
				c-0.2-0.3-0.4-0.7-0.7-1c-1.5-1.7-1.9-3.7-1.5-5.9c0.1-0.5,0.2-1,0.2-1.5c0.1-1-0.4-1.6-1.4-1.6c-0.3,0-0.6,0-0.9,0
				c-1.2,0-2.3-0.5-3.2-1.3c-0.5-0.4-1-0.9-1.4-1.4c-0.2-0.2-0.4-0.4-0.6-0.6c-0.7-0.5-1.3-0.3-1.6,0.5c-0.1,0.4-0.1,0.8-0.2,1.2
				c-0.2,2.2-0.8,4.3-2.5,5.9c-0.6,0.6-0.6,1.1-0.1,1.8c0.3,0.4,0.7,0.8,1,1.2c1,1.3,1.2,2.7,0.6,4.2c-0.1,0.3-0.2,0.6-0.4,0.8
				c-0.4,1-0.3,1.5,0.8,1.9c0.5,0.2,1,0.3,1.5,0.5c0.6,0.3,1.1,0.6,1.7,1c0.6,0.4,0.9,0.9,0.8,1.7c0,0.4,0.1,0.9,0.1,1.3
				c0.2,2.6,0.5,5.2,1,7.8c0.2,1.1,0.5,2.1,0.7,3.2c-2.3-2-4.5-3.9-6.7-5.9c0-0.1,0-0.2,0.1-0.2c0.7-1.8-0.2-3.8-2.1-4.4
				c-1.5-0.5-3.2,0.7-3.1,2.2c0.1,1.3,1.3,2.9,2.6,3.2c0.8,0.2,1.3,0.5,1.8,1.1c0.2,0.2,0.4,0.4,0.6,0.6c1.3,1.1,2.6,2.3,3.9,3.4
				c1.5,1.4,2.9,2.8,4.2,4.4c0.2,0.3,0.4,0.6,0.6,0.9c2,4.5,4.6,8.5,7.5,12.4C237.7,333.7,239,335.3,240.5,337.1z M291,256.5
				c0,0.1,0,0.1,0.1,0.2c-0.2,0.1-0.4,0.3-0.6,0.4c-5,2.9-10,5.8-14.7,9.1c-0.3,0.2-0.6,0.2-0.9,0.1c-1.4-0.4-2.6-1.2-3.4-2.4
				c-0.8-1.1-1.5-2.2-2.2-3.4c-1.1-1.8-2.2-3.5-3.7-4.9c-3.8-3.7-8.5-4.6-13.5-3.5c-1.6,0.3-1.9,1.3-1,2.6c1,1.5,2.1,3.1,3.2,4.6
				c1.7,2.4,4,4.2,6.6,5.3c2.6,1.1,5.3,2.1,8,3.1c1.1,0.4,2.2,0.6,3.4,0.8c0,0,0,0.1,0,0.1c-0.2,0.1-0.3,0.3-0.5,0.4
				c-1.9,1.5-3.8,3-5.6,4.7c-1.9,1.8-4,3.5-6,5.2c-1.5,1.3-3.1,2.6-4.6,4c-3,2.9-4.6,6.4-4.4,10.6c0.1,2.2,0.5,4.4,1.3,6.5
				c0.1,0.3,0.2,0.6,0.4,0.9c0.6,1,1.4,1.2,2.4,0.5c0.2-0.2,0.4-0.4,0.6-0.6c0.7-0.7,1.3-1.4,1.9-2.2c2.3-2.9,4.1-6.1,4.7-9.7
				c0.3-1.4,0.6-2.7,0.9-4.1c0.7-3.2,2.1-6,4.1-8.5c0.2-0.2,0.4-0.5,0.6-0.7c0.1,0.2,0,0.4,0,0.5c-0.1,0.9-0.3,1.8-0.4,2.6
				c-0.3,2.1,0.1,4.2,0.1,6.3c0,0.4,0,0.9,0.1,1.3c0.2,1.1,0.9,1.7,1.9,1.7c0.5,0,1-0.1,1.5-0.2c2.4-0.9,4.4-2.3,5.8-4.5
				c2.2-3.6,3.1-7.4,2.6-11.6c-0.2-1.4-0.4-2.8-0.6-4.2c1-0.9,11-7.7,11.7-7.9c-0.4,0.6-0.8,1.1-1.1,1.6c-1,1.5-1.8,3.1-2.4,4.8
				c-1,3.5-0.7,6.7,1.4,9.7c0.6,0.9,1.3,1.8,2,2.7c2.1,2.4,4.3,4.9,6.4,7.3c0.8,0.9,1.7,1.1,2.7,0.4c0.4-0.3,0.8-0.7,1.1-1.1
				c0.5-0.7,1-1.4,1.3-2.2c1.6-3.8,1.5-7.7-0.3-11.4c-0.8-1.7-1.9-3.2-2.9-4.8c-1-1.6-2.1-3.2-3.1-4.9c-0.7-1.2-0.7-2.4-0.1-3.6
				c0.4-0.7,0.8-1.4,1.4-2.1c1.1-1.3,2.3-2.5,3.4-3.8c1.3-1.4,2.5-2.9,3.4-4.6c0.2-0.5,0.5-1,0.6-1.5c0.3-0.8-0.1-1.3-0.9-1.5
				c-0.8-0.2-1.4,0-2,0.9c-1.5,2-3,4.1-4.5,6.1c-0.6,0.8-1.5,1.3-2.4,1.8c-0.6,0.3-1.2,0.3-1.8,0.1c-0.6-0.3-1.2-0.6-1.7-1
				c-0.8-0.6-1.5-1.4-2.3-2.1c-1.4-1.3-3.1-2.3-5-2.7c-2-0.5-4.1-0.9-6.1-1.3c-0.7-0.1-1.2,0.1-1.4,0.8c-0.2,0.5-0.3,1-0.3,1.5
				c0.1,2.5,1.1,4.6,3.1,6.1c1,0.7,2.1,1.2,3.3,1.6c1.6,0.5,3.2,0.5,4.9,0.4C288.8,256.7,289.9,256.6,291,256.5z M225.6,263.7
				c0.8,0.8,1.5,1.4,2.2,2c0.1,0.1,0.2,0.3,0.2,0.5c0.1,0.8,0.1,1.6,0.1,2.3c0.1,3.4,0.1,6.8,0.2,10.2c0,0.3,0,0.5,0,0.7
				c0.1,0.5,0.4,0.8,0.8,0.8c0.5,0,0.8-0.2,1-0.7c0.1-0.3,0.1-0.6,0.2-0.9c0.1-1.7,0.3-3.4,0.4-5.2c0-0.1,0.1-0.3,0.1-0.6
				c0.2,0.8,0.3,1.4,0.5,2c0.1,0.4,0.5,0.6,0.9,0.7c0.4,0,0.8-0.2,1-0.5c0.1-0.3,0.2-0.6,0.3-0.9c0.1-0.2,0.1-0.4,0.2-0.7
				c0.2,0.4,0.4,0.6,0.6,0.9c1.2,1.9,2.4,3.8,3.6,5.8c0.1,0.2,0.3,0.5,0.5,0.7c0.4,0.4,0.8,0.5,1.2,0.3c0.4-0.2,0.6-0.6,0.6-1.1
				c0-0.4-0.1-0.7-0.3-1c-0.8-1.7-1.7-3.4-2.6-5.2c-0.1-0.3-0.3-0.5-0.4-0.8c0.2,0,0.3,0.2,0.4,0.3c2,1.9,3.9,3.9,5.9,5.8
				c0.6,0.6,1.3,1,2,1.5c0.4,0.3,0.9,0.2,1.2-0.1c0.3-0.3,0.3-0.7,0-1.2c-0.1-0.1-0.2-0.2-0.3-0.3c-1.4-1.4-2.8-2.9-4.2-4.3
				c-0.2-0.2-0.3-0.4-0.5-0.6c1.5-0.4,1.7-1.1,0.6-2.4c0.5,0,0.9,0,1.3,0c0.4,0,0.8-0.1,1.1-0.2c0.5-0.1,0.8-0.5,0.9-1
				c0-0.5-0.3-0.9-0.7-1.1c-0.6-0.2-1.2-0.4-1.8-0.4c-1.6,0-3.2,0.1-4.8,0.2c-0.2,0-0.4,0-0.6,0c-0.4-0.1-1.6-1.1-1.9-1.6
				c0.4-0.1,0.9-0.1,1.3-0.2c1.2-0.2,2.5-0.4,3.7-0.7c0.6-0.1,1-0.6,1-1.1c0-0.5-0.5-1-1.1-1.1c-0.1,0-0.2,0-0.3,0
				c-1.7-0.1-3.4-0.1-5.1-0.2c-0.3,0-0.5,0-0.8,0c0.3-0.2,0.6-0.3,0.9-0.4c0.6-0.2,0.9-0.7,0.9-1.2c0-0.5-0.3-0.9-1-1.1
				c-0.8-0.3-1.6-0.5-2.4-0.8c-1.3-0.5-2.5-1.2-3.7-1.9c0.4,0,0.7,0.1,1,0.2c1.5,0.4,3,0.9,4.6,1.3c0.6,0.2,1.2,0.3,1.8,0.4
				c0.7,0.1,1.3-0.3,1.5-0.9c0.2-0.6-0.1-1.2-0.8-1.6c-0.2-0.1-0.4-0.2-0.6-0.2c-2.1-0.6-4.1-1.2-6.2-1.8c-1.1-0.3-1.8-1-2.7-1.6
				c0.3,0,0.6,0,0.9,0.1c1.1,0.2,2.2,0.5,3.3,0.7c0.4,0.1,0.7,0.1,1.1,0c0.5-0.1,0.9-0.3,1-0.8c0.1-0.5-0.1-0.9-0.5-1.1
				c-0.5-0.3-1-0.4-1.5-0.6c-0.4-0.2-0.9-0.3-1.3-0.4c0.3-0.1,0.6-0.2,0.8-0.2c0.8-0.3,0.9-1,0.4-1.6c-0.1-0.1-0.3-0.2-0.5-0.4
				c0.6,0.1,1.1,0.1,1.6,0.1c0.5,0,1.1-0.1,1.6-0.2c0.4-0.1,0.7-0.4,0.7-0.9c0-0.4-0.2-0.8-0.6-0.9c-0.4-0.2-0.8-0.3-1.3-0.4
				c-1.6-0.3-3.1-0.5-4.7-0.8c-0.2,0-0.4-0.1-0.6-0.2c0.7-0.2,1.3-0.3,1.9-0.5c0.5-0.2,0.8-0.6,0.8-1.2c0-0.6-0.3-0.9-0.8-1.1
				c-0.2-0.1-0.5-0.2-0.7-0.2c-0.7,0-1.4,0-2.1,0c-1.7,0.1-3.4,0.2-5.2,0.4c-0.6,0-1.1,0.2-1.7,0.3c-0.4-1.5-0.8-3-1.2-4.4
				c-0.1-0.4-0.2-0.9-0.4-1.3c-0.2-0.6-0.6-0.8-1-0.7c-0.4,0.1-0.7,0.4-0.8,1c0,0.1,0,0.2,0,0.3c0,0.8,0,1.5,0.1,2.3
				c0.1,1,0.3,2.1,0.5,3.1c-1.1,1.4-1.8,3-2.4,4.6c-0.2,0.4-0.3,0.9-0.4,1.4c-0.1,0.5,0.1,1,0.5,1.2c0.4,0.2,0.9,0.1,1.2-0.2
				c0.2-0.2,0.3-0.4,0.4-0.6c0.3-0.4,0.5-0.8,0.8-1.2c0.1,0.2,0.1,0.4,0.1,0.6c0,2.1,0,4.3,0.1,6.4c0,1.1,0.2,2.2,0.4,3.3
				c0,0.2,0.1,0.5,0.2,0.7c0.4,0.8,1.2,0.8,1.7,0.1c0.4-0.7,0.7-1.5,0.9-2.3c0.2-0.9,0.4-1.8,0.6-2.8c0.2,1.5,0.3,2.9,0.6,4.3
				c0.6,3.2,1.4,6.4,2.1,9.6c0.1,0.3,0.2,0.6,0.3,0.9c0.2,0.4,0.5,0.5,0.9,0.5c0.4,0,0.7-0.3,0.8-0.7c0.1-0.2,0.1-0.5,0.1-0.7
				c-0.1-1.6-0.3-3.3-0.4-4.9C225.7,264.8,225.7,264.4,225.6,263.7z M293.7,303.8c2.2,1.2,4.5,1.6,6.9,1.7c0.8,0,1.6,0,2.3-0.1
				c0.5,0,0.8-0.4,0.8-0.7c0-0.3-0.3-0.6-0.8-0.6c-0.6-0.1-1.1-0.1-1.7-0.2c-1.9-0.2-3.8-0.5-5.6-1.1c-1.2-0.4-2.2-1-3-1.9
				c-0.5-0.5-0.9-1.1-1.2-1.7c-0.8-1.5-1.7-2.9-2.5-4.4c-1.7-3.1-2.8-6.4-2.9-9.9c0-0.5,0-1,0-1.5c0-0.3,0-0.6-0.4-0.6
				c-0.3,0-0.5,0.2-0.6,0.5c-0.1,0.4-0.2,0.7-0.3,1.1c-0.4,2.1-0.1,4.2,0.4,6.3c0.6,2.4,1.6,4.7,2.8,6.9c0.8,1.5,1.5,3.1,1.3,4.9
				c-0.4,3-1.5,5.7-3.7,7.9c-0.3,0.3-0.6,0.6-0.8,1c-0.2,0.3-0.3,0.6,0,0.8c0.2,0.3,0.6,0.3,0.8,0.1c0.3-0.2,0.7-0.4,0.9-0.7
				c2.2-1.9,3.5-4.4,4.2-7.2c0-0.2,0.1-0.3,0.2-0.6c0.6,1.7,1,3.3,1.1,5c0.2,2.5-0.3,5-1,7.4c-0.6,2-1.3,4-1.9,6.1
				c-0.2,0.8-0.1,1.2,0.4,1.4c0.4,0.1,0.8-0.1,1.1-0.8c1.3-3.2,2.4-6.4,3.2-9.7c0-0.2,0.1-0.3,0.2-0.5c0.4,1.8,0.7,3.5,1,5.3
				c0.1,0.8,0.3,1.7,0.3,2.5c0,1.4-0.1,2.7-0.2,4.1c-0.4,4.2-1.9,7.9-4.8,11c-1,1.1-2.2,2.1-3.3,3.1c-1.3,1-2.7,1.9-3.9,3
				c-1,0.9-2,1.8-3,2.8c-0.5,0.5-0.5,0.8-0.2,1.1c0.3,0.3,0.6,0.4,1.2,0c0.5-0.3,1-0.7,1.5-1.1c1.2-0.9,2.3-1.9,3.5-2.8
				c0.9-0.7,1.9-1.3,2.8-2c2.9-2.3,5.3-5.1,6.8-8.6c0-0.1,0.1-0.2,0.2-0.3c0.1,1.5,0.3,3,0.4,4.5c0.1,1.5,0.6,2.8,1.5,4
				c0.1,0.2,0.3,0.4,0.4,0.5c0.2,0.2,0.5,0.4,0.8,0.2c0.3-0.2,0.4-0.4,0.4-0.8c0-0.2-0.1-0.4-0.2-0.6c-0.9-2.5-1.2-5.1-1.2-7.8
				c0-2.7-0.1-5.5-0.3-8.2c-0.2-3.6-0.8-7.1-1.6-10.6C295.2,309,294.5,306.5,293.7,303.8z M241.8,296.1c-0.3,0.4-0.5,0.7-0.6,1
				c-0.4,0.7-0.8,1.4-1.2,2.1c-0.1,0.2-0.2,0.5,0.1,0.7c0.2,0.1,0.5,0,0.7-0.1c0.5-0.5,0.9-1.1,1.3-1.6c0.2-0.2,0.4-0.5,0.6-0.8
				c0.2,1.2,0.3,2.2,0.5,3.1c0,0.2,0.1,0.5,0.2,0.6c0.1,0.1,0.3,0.3,0.5,0.3c0.2,0,0.4-0.2,0.5-0.4c0.1-0.2,0-0.4,0-0.7
				c-0.1-1.1-0.2-2.1-0.3-3.3c0.2,0.1,0.3,0.2,0.4,0.2c0.6,0.5,1.3,1.1,1.9,1.6c0.2,0.2,0.4,0.4,0.7,0.5c0.3,0.2,0.5,0.2,0.8,0
				c0.2-0.3,0.1-0.5-0.1-0.7c-0.3-0.3-0.7-0.7-1-1c-0.6-0.6-1.1-1.1-1.7-1.8c1-0.2,2-0.4,2.9-0.7c0.3-0.1,0.7-0.2,1-0.3
				c0.3-0.1,0.5-0.3,0.5-0.6c-0.1-0.4-0.4-0.5-0.7-0.4c-0.1,0-0.3,0-0.4,0c-0.5,0.1-0.9,0.1-1.4,0.2c-0.6,0.1-1.2,0.2-1.9,0.3
				c0.1-0.3,0.2-0.4,0.3-0.5c0.7-1.1,1.4-2.2,2.1-3.3c0.1-0.2,0.3-0.5,0.4-0.7c0.1-0.3,0-0.6-0.3-0.8c-0.3-0.2-0.6-0.1-0.8,0.2
				c-0.1,0.1-0.2,0.3-0.3,0.4c-0.7,1.1-1.4,2.2-2.1,3.3c-0.1,0.2-0.3,0.3-0.5,0.6c-0.1-0.5-0.1-0.9-0.2-1.2
				c-0.1-0.8-0.3-1.5-0.4-2.3c-0.1-0.4-0.3-0.7-0.8-0.7c-0.3,0.4-0.3,0.8-0.3,1.2c0,0.6,0.1,1.3,0.1,1.9c0,0.2,0,0.3,0,0.6
				c-0.6-0.6-1.2-1.1-1.7-1.6c-0.2-0.2-0.5-0.4-0.7-0.5c-0.2-0.1-0.5-0.1-0.7,0.1c-0.3,0.2-0.1,0.5,0,0.7c0.4,0.4,0.7,0.8,1.1,1.3
				c0.6,0.6,1.2,1.2,1.9,2c-0.6,0.1-1.1,0.2-1.6,0.3c-0.6,0.1-1.2,0.3-1.8,0.5c-0.2,0.1-0.3,0.3-0.5,0.5c0.2,0.1,0.3,0.4,0.5,0.4
				c0.3,0.1,0.6,0,0.8,0C240.2,296.3,240.9,296.2,241.8,296.1z M363.8,293.6c-0.1-0.5-0.2-0.9-0.7-1.2c-0.4-0.2-0.8-0.1-1.2,0.1
				c-0.3,0.2-0.6,0.4-0.8,0.7c-0.5,0.6-1,1.1-1.5,1.7c-2.5,2.9-5.1,5.7-8.2,8.1c-0.2,0.2-0.4,0.4-0.6,0.6c-0.3,0.5-0.3,1,0,1.5
				c0.4,0.7,1.2,0.8,2,0.3c0.8-0.5,1.5-1.1,2.3-1.7c2.1-1.5,4-3.2,5.7-5.2c0.9-1.1,1.8-2.2,2.4-3.5
				C363.5,294.6,363.6,294.1,363.8,293.6z M321.7,250.4c-0.3,0-0.6,0-0.9,0.1c-1.2,0.2-2.4,0.4-3.4,1.2c-0.7,0.5-1.1,1.2-0.8,1.8
				c0.3,0.7,0.9,1,1.6,1c0.8,0,1.5,0,2.3-0.1c2.5-0.3,4.8,0.1,6.9,1.4c0.4,0.2,0.9,0.4,1.3,0.5c0.6,0.2,1.2,0,1.5-0.6
				c0.4-0.6,0.3-1.1-0.1-1.6c-0.3-0.4-0.6-0.8-0.9-1.1C327,251.2,324.5,250.4,321.7,250.4z M241,346.9c0.3-0.5,0.5-0.8,0.7-1.1
				c0.2-0.3,0.4-0.6,0.6-0.9c0.2-0.3,0.3-0.6,0-0.8c-0.2-0.2-0.5-0.2-0.9,0.2c-0.1,0.1-0.3,0.3-0.4,0.4c-0.6,0.7-1.1,1.3-1.6,2
				c-0.1,0.1-0.2,0.3-0.4,0.5c-0.2-0.8-0.3-1.4-0.5-2.1c-0.1-0.4-0.2-0.9-0.4-1.3c-0.1-0.2-0.4-0.4-0.6-0.3c-0.2,0-0.4,0.3-0.4,0.5
				c-0.1,0.3,0,0.6,0,0.9c0.1,0.6,0.2,1.2,0.3,1.9c-0.8-0.4-1.4-0.8-2-1.1c-0.3-0.1-0.6-0.3-0.9-0.3c-0.1,0-0.4,0.1-0.5,0.3
				c-0.1,0.1,0,0.4,0.1,0.5c0.2,0.2,0.5,0.4,0.7,0.5c0.6,0.4,1.2,0.8,1.9,1.3c-0.4,0.1-0.6,0.2-0.8,0.2c-0.7,0.2-1.5,0.4-2.2,0.7
				c-0.2,0.1-0.5,0.2-0.7,0.3c-0.3,0.3-0.2,0.7,0.2,0.8c0.2,0,0.5,0,0.7,0c1.2-0.2,2.3-0.5,3.7-0.7c-0.5,0.7-0.9,1.3-1.4,1.9
				c-0.3,0.4-0.6,0.8-0.9,1.2c-0.2,0.3-0.3,0.6,0,0.8c0.3,0.2,0.5,0,0.7-0.2c0.4-0.4,0.8-0.8,1.1-1.2c0.3-0.4,0.6-0.8,1-1.2
				c0.2,0.6,0.3,1.1,0.4,1.5c0.1,0.5,0.3,0.9,0.5,1.3c0.1,0.2,0.4,0.3,0.5,0.3c0.2,0,0.4-0.2,0.4-0.4c0.1-0.2,0.1-0.4,0-0.7
				c-0.1-0.6-0.2-1.2-0.4-1.8c0-0.2-0.1-0.5-0.1-0.8c1,0.6,1.9,1.2,2.8,1.7c0.5,0.2,0.9,0.8,1.5,0.2c0.3-0.3,0.1-0.6-0.9-1.3
				c-0.8-0.6-1.7-1.1-2.6-1.7c-0.1-0.1-0.2-0.2-0.4-0.4c1-0.3,1.9-0.5,2.7-0.8c0.2-0.1,0.5-0.2,0.7-0.3c0.3-0.3,0.2-0.8-0.2-0.9
				c-0.2,0-0.4,0-0.6,0C242.3,346.7,241.7,346.8,241,346.9z M287,329.7c0.1,0.4,0.2,0.8,0.4,1.2c0.2,0.4,0.5,0.9,0.8,1.2
				c0.3,0.3,0.7,0.3,1.1,0.2c0.4-0.2,0.6-0.5,0.6-0.9c0-0.3,0-0.6-0.1-0.9c-0.2-0.9-0.4-1.7-0.6-2.6c0.7-0.4,1.4-0.7,2-1.1
				c0.4-0.2,0.8-0.6,1.1-0.9c0.3-0.4,0.4-0.8,0.1-1.2c-0.3-0.4-0.7-0.6-1.2-0.4c-0.4,0.1-0.8,0.3-1.2,0.5c-0.6,0.3-1.2,0.7-1.9,1.1
				c-0.2-0.6-0.3-1.1-0.5-1.5c-0.2-0.5-0.4-0.9-0.7-1.3c-0.3-0.4-0.8-0.4-1.1-0.2c-0.4,0.2-0.5,0.6-0.5,1c0,0.2,0.1,0.4,0.1,0.7
				c0.1,0.3,0.2,0.7,0.3,1.1c-0.4,0-0.8,0.1-1.1,0.1c-0.6,0.1-1,0.5-1.1,1c-0.1,0.5,0.2,0.8,0.8,1.2c0.3,0.1,0.5,0.3,0.8,0.4
				c-0.3,0.4-0.5,0.6-0.7,0.9c-0.2,0.3-0.4,0.7-0.6,1c-0.2,0.4,0,0.8,0.3,1.1c0.3,0.3,0.7,0.4,1.1,0.2c0.3-0.1,0.6-0.3,0.9-0.5
				C286.2,330.4,286.6,330.1,287,329.7z M304,292.4c-0.6-0.3-1.2-0.6-1.7-0.9c-0.4-0.2-0.8-0.4-1.3-0.6c-0.3-0.1-0.7-0.2-0.9,0.2
				c-0.2,0.3,0.1,0.6,0.3,0.8c0.4,0.3,0.7,0.5,1.1,0.8c0.2,0.2,0.5,0.3,0.8,0.6c-0.8,0.3-1.4,0.5-2.1,0.7c-0.3,0.1-0.5,0.2-0.5,0.6
				c0.1,0.3,0.4,0.4,0.6,0.4c0.4,0,0.7-0.1,1.1-0.1c0.4-0.1,0.8-0.2,1.4-0.3c-0.2,0.4-0.4,0.7-0.5,1c-0.2,0.4-0.3,0.7-0.4,1.1
				c0,0.1,0.1,0.5,0.2,0.5c0.2,0.1,0.4,0,0.6-0.1c0.2-0.1,0.3-0.3,0.4-0.4c0.4-0.6,0.8-1.2,1.2-1.7c0.1-0.1,0.2-0.3,0.4-0.5
				c0.2,0.4,0.3,0.6,0.4,0.9c0.3,0.7,0.6,1.4,1,2.1c0.2,0.4,0.6,0.6,0.9,0.4c0.3-0.1,0.4-0.4,0.3-0.9c-0.1-0.4-0.3-0.7-0.4-1.2
				c0.3,0.1,0.4,0.1,0.5,0.2c0.6,0.4,1.3,0.7,1.9,1.1c0.4,0.2,0.8,0.2,1-0.1c0.2-0.3,0.1-0.6-0.4-0.9c-0.4-0.3-0.9-0.6-1.3-0.8
				c-0.7-0.5-1.4-0.9-2.3-1.4c0.4-0.1,0.7-0.2,1-0.3c1-0.3,2-0.6,3-1c0.2-0.1,0.5-0.2,0.7-0.3c0.1-0.1,0.2-0.4,0.2-0.6
				c0-0.2-0.3-0.3-0.5-0.3c-0.2,0-0.5,0-0.7,0.1c-1.1,0.3-2.1,0.5-3.2,0.8c-0.2,0.1-0.5,0.1-0.8,0.2c0.5-0.9,0.9-1.8,1.4-2.6
				c0.1-0.3,0.3-0.5,0.4-0.8c0.2-0.5,0.2-0.8-0.1-1c-0.3-0.2-0.7-0.1-1,0.4c-0.2,0.3-0.3,0.6-0.5,0.9c-0.3,0.6-0.7,1.1-1.1,1.8
				c-0.2-0.6-0.4-1-0.6-1.5c-0.1-0.3-0.2-0.6-0.4-0.9c-0.1-0.2-0.4-0.3-0.6-0.2c-0.1,0-0.3,0.3-0.3,0.5c0,0.2,0,0.5,0.1,0.7
				C303.3,290.3,303.6,291.2,304,292.4z M280.1,350c0.4-0.3,0.9-0.5,1.3-0.8c0.8-0.6,1-1.3,0.6-1.9c-0.4-0.6-1.1-0.7-1.9-0.4
				c-0.4,0.2-0.9,0.4-1.3,0.6c-0.1-0.3-0.1-0.6-0.2-0.8c-0.1-0.3-0.1-0.5-0.2-0.8c-0.3-0.6-0.8-0.9-1.3-0.8
				c-0.5,0.1-0.8,0.5-0.9,1.2c0,0.3,0,0.6,0,0.9c-0.4,0-0.7,0-1,0c-0.6,0-1.1,0.4-1.2,0.9c-0.1,0.5,0.1,0.9,0.6,1.3
				c0.3,0.2,0.5,0.3,0.8,0.5c-0.3,0.4-0.5,0.7-0.8,1.1c-0.5,0.8-0.5,1.5-0.1,1.9c0.5,0.5,1,0.5,1.9-0.1c0.4-0.2,0.7-0.5,1.1-0.7
				c0.2,0.3,0.3,0.5,0.4,0.7c0.1,0.2,0.3,0.5,0.5,0.7c0.8,0.7,1.8,0.5,2.2-0.4c0.1-0.3,0.1-0.7,0.1-1
				C280.6,351.4,280.3,350.8,280.1,350z M367.5,282.9c-0.1-0.6-0.1-1.2-0.2-1.8c-0.3-2.1-0.9-4.1-2-5.9c-0.7-1.1-1.6-2-2.7-2.5
				c-0.4-0.2-1-0.3-1.4-0.3c-0.8,0-1.2,0.7-0.9,1.5c0.2,0.4,0.5,0.8,0.8,1.2c1.5,1.5,2.5,3.3,2.8,5.4c0.2,1,0.3,2,0.4,3.1
				c0.1,0.7,0.4,1.3,0.8,1.9c0.6,0.8,1.6,0.6,1.9-0.2C367.4,284.4,367.6,283.7,367.5,282.9z M314.2,321c0.1,0,0.4,0,0.6-0.1
				c2.9-0.8,5.8-1.5,8.7-2.3c1.3-0.4,2.5-0.9,3.5-1.7c0.4-0.3,0.7-0.6,0.9-0.9c0.4-0.5,0.1-1.1-0.6-1.1c-0.4,0-0.8,0.1-1.2,0.1
				c-1.5,0.4-3.1,0.8-4.6,1.2c-2.4,0.6-4.8,1.2-7.2,1.8c-0.3,0.1-0.7,0.2-1,0.3c-0.7,0.3-1,1-0.8,1.6
				C312.8,320.6,313.4,321,314.2,321z M347.6,266c-1.4,0.2-2.8,0.3-4.2,0.6c-0.4,0.1-0.9,0.3-1.2,0.5c-0.7,0.5-0.6,1.3,0.2,1.8
				c0.4,0.2,0.8,0.3,1.3,0.4c0.7,0.1,1.4,0.1,2.2,0.1c2.1,0.1,4.2,0.2,6.2,0.6c0.7,0.1,1.3,0.2,2,0.3c0.8,0.1,1.5-0.4,1.6-1.1
				c0.2-0.7-0.2-1.3-1-1.7C352.4,266.4,350.1,266.1,347.6,266z M297.6,344.4c-0.4,0.1-0.7,0.2-1,0.3c-0.5,0.2-0.9,0.4-1.3,0.6
				c-0.4,0.3-0.5,0.7-0.4,1.1c0.1,0.4,0.6,0.6,1,0.6c0.4-0.1,0.8-0.2,1.2-0.3c0.3-0.1,0.5-0.2,0.8-0.3c0,0.3,0,0.5,0,0.7
				c0.1,0.4,0.1,0.8,0.3,1.2c0.1,0.4,0.4,0.6,0.9,0.7c0.5,0,0.8-0.2,1-0.6c0.1-0.2,0.2-0.5,0.2-0.7c0.1-0.4,0.1-0.9,0.2-1.4
				c0.2,0.1,0.4,0.2,0.7,0.2c0.4,0.1,0.8,0.1,1.2,0.1c0.5,0,0.9-0.2,1.1-0.7c0.2-0.5,0-0.9-0.4-1.3c-0.4-0.3-0.8-0.6-1.2-0.8
				c-0.2-0.1-0.4-0.2-0.5-0.3c0.2-0.4,0.4-0.7,0.6-1.1c0.2-0.4,0.3-0.7,0.4-1.1c0.1-0.5-0.1-0.9-0.4-1.2c-0.4-0.2-0.8-0.2-1.2,0.1
				c-0.3,0.3-0.6,0.6-0.8,0.9c-0.3,0.4-0.6,0.9-0.9,1.4c-0.3-0.2-0.5-0.4-0.8-0.5c-0.5-0.2-0.9-0.5-1.5-0.6
				c-0.6-0.1-1.1,0.1-1.3,0.6c-0.2,0.4,0,0.8,0.5,1.2C296.4,343.7,297,344,297.6,344.4z M344.4,306.8c-0.1,0-0.2,0-0.4,0
				c-0.3,0.1-0.5,0.1-0.8,0.2c-2.7,1-5.3,2.1-7.7,3.6c-0.7,0.5-1.4,1.1-2.1,1.7c-0.5,0.5-0.6,1-0.3,1.5c0.3,0.5,0.8,0.7,1.5,0.5
				c0.8-0.2,1.6-0.5,2.4-0.8c1.2-0.6,2.5-1.2,3.7-1.8c1.1-0.6,2.1-1.1,3.1-1.8c0.6-0.4,1.1-0.9,1.6-1.5
				C346,307.6,345.5,306.8,344.4,306.8z M338.1,269.6c0-0.1,0-0.4-0.1-0.7c-0.6-2.2-1.3-4.4-2.4-6.4c-0.4-0.6-0.9-1.2-1.3-1.8
				c-0.3-0.4-0.8-0.6-1.3-0.6c-0.9,0-1.4,0.6-1.3,1.4c0,0.3,0.2,0.6,0.3,0.9c0.2,0.5,0.5,0.9,0.7,1.3c1,1.8,1.9,3.6,2.3,5.6
				c0.1,0.3,0.2,0.7,0.4,1c0.4,0.9,1.1,1.2,1.8,1.1C337.8,271.4,338.1,270.8,338.1,269.6z M284.8,313.8c0-1.3-1.1-2.1-2.3-1.7
				c-1.1,0.4-1.7,1.2-1.8,2.3c-0.1,1,0.5,1.9,1.5,1.9C283.3,316.4,284.8,315.3,284.8,313.8z M306.7,306.2c0.5,0,0.8-0.1,1.2-0.1
				c0.8-0.1,1.3-0.6,1.4-1.2c0.1-0.7-0.3-1.3-1-1.6c-1-0.4-1.9-0.2-2.7,0.4c-0.8,0.7-0.7,1.8,0.3,2.3
				C306.1,306.1,306.5,306.1,306.7,306.2z"/>
			<path class="st74" d="M263.8,218.6c4.6,0.1,8.5,0.1,12.4,0.3c6.6,0.3,13.2,0.8,19.7,2.1c3.9,0.8,7.7,1.8,11.4,3.4
				c1,0.4,1.9,0.9,2.8,1.5c0.7,0.5,1.3,1,1.8,1.7c0.9,1.1,1,2.5,0.3,3.8c-0.5,1.1-1.4,1.9-2.4,2.5c-1.3,0.9-2.7,1.5-4.2,1.9
				c-4.3,1.2-8.5,2.5-12.9,3.3c-3.3,0.6-6.5,1-9.8,1.3c-4.5,0.4-9,0.6-13.5,0.6c-5,0-9.9-0.3-14.9-0.7c-4.9-0.4-9.8-1-14.7-1.7
				c-4.1-0.6-8.2-1.4-12.2-2.8c-2.3-0.8-4.4-1.9-6.4-3.2c-0.6-0.4-1.1-0.8-1.6-1.4c-1.3-1.5-1.4-3.4-0.2-5c0.6-0.8,1.4-1.5,2.4-2
				c2-1.1,4.1-1.7,6.2-2.2c3.6-0.7,7.1-1.3,10.7-1.8c4.2-0.7,8.5-1.1,12.8-1.2C255.8,218.8,260.2,218.7,263.8,218.6z"/>
		</g>
		<g>
			<path d="M193.7,198.2c-0.2-3.6-0.7-7.2-1.4-10.8c-0.7-3.5-1.6-6.9-3.1-10.2c-2.1-5-5.7-8.4-10.8-10.3c0,0-0.1,0-0.1,0
				c-3.9-1.5-7.9-2.4-12-3c-4.9-0.7-9.9-1-14.8-1.1c-3.3-0.1-6.5,0-9.8,0.1c-2.9,0.1-5.8,0.4-8.8,0.6c-4.6,0.3-9.1,0.8-13.6,1.6
				c-3,0.5-5.8,1.4-8.4,3c-2.8,1.7-4.6,4-5.5,7.1c-0.3,1-0.5,1.9-0.7,2.9c-0.2,1.4-0.3,2.9-0.6,4.3c-0.9,4.8-1.2,9.7-1.4,14.5
				c-0.2,3.3-0.2,6.6-0.3,9.9c-0.1,4-0.2,8-0.3,12c-0.1,2-0.1,4-0.2,5.9c0,1.7-0.1,3.4-0.1,5c-0.1,0-0.2,0-0.3,0
				c-1.8,0.2-3.5,0.4-5.3,0.6c-3.8,0.4-7.5,1.1-11.1,2.4c-4.4,1.6-8.6,3.7-12.1,6.9c-7.7,7-11.2,16-11.9,26.2
				c-0.2,2.3,0,4.6,0.3,6.9c0.8,7.1,3.2,13.6,6.8,19.7c7,11.6,20.3,16.9,30,16.6c0.3,0,0.9,0,1.5,0c0.4,0,0.7,0,1.1-0.1
				c0.3,0,0.5-0.1,0.8-0.1c0.2,3.5,0.3,7,0.5,10.5c0.2,3.6,0.4,7.2,0.7,10.8c0.3,3.6,0.7,7.3,1.2,10.9c0.5,3.4,1.5,6.7,3.4,9.7
				c2.1,3.3,4.9,5.4,8.6,6.4c3.8,0.9,7.7,1.5,11.7,1.5c3.9,0.1,7.9,0.1,11.8,0.1c6.6,0.1,13.2,0.2,19.8-0.2c4.5-0.3,9-0.6,13.5-1.4
				c2.9-0.5,5.8-1.2,8.7-2.2c3.8-1.3,6.1-3.9,7.1-7.8c0.9-3.9,1.2-7.8,1.4-11.8c0.1-2.2,0.2-4.4,0.3-6.6c0.1-3.2,0.3-6.3,0.4-9.5
				c0.1-2.1,0.2-4.2,0.2-6.3c0.1-3.2,0.3-6.5,0.4-9.7c0.1-2.3,0.1-4.5,0.2-6.8c0.1-3.5,0.2-6.9,0.3-10.4c0.1-2.5,0.1-4.9,0.2-7.4
				c0.1-3.4,0.3-6.7,0.4-10.1c0.1-2.2,0.2-4.3,0.2-6.5c0.1-3.3,0.3-6.5,0.4-9.8c0.1-2.5,0.2-5,0.2-7.5c0.1-3.8,0.3-7.7,0.4-11.5
				c0.1-2.6,0.1-5.2,0.2-7.9c0-1.4,0-2.8,0.1-4.3C194.3,213.6,194.3,205.9,193.7,198.2z M178.7,189.3c0.5-1.8,2.3-3.1,4.1-2.9
				c1.9,0.3,3.5,1.9,3.4,3.8c0,1.9-1.7,3.4-3.9,3.4c-1-0.1-2.1-0.5-2.9-1.4C178.6,191.4,178.4,190.4,178.7,189.3z M175.6,196.5
				c0.7-0.6,1.4-0.8,2.4-0.8c0.8,0,1.6,0.3,2.3,1c2.1,1.9,1.6,5.4-0.9,6.7c-0.8,0.4-1.5,0.5-2.3,0.2c-1.5-0.5-2.4-1.6-2.7-3.1
				C174,198.8,174.4,197.5,175.6,196.5z M144.2,202.6c0.3-0.2,0.6-0.4,0.9-0.5c0.8-0.4,1.7-0.7,2.5-1.1c1.9-0.8,3-2.2,3.4-4.2
				c0.1-0.5,0.2-0.9,0.7-1.2c0.2-0.1,0.4-0.2,0.6-0.2c0.3,0.1,0.6,0.2,0.9,0.2c1.3,0.3,2.7,0.7,4,0.8c2.4,0.3,4.4-0.6,6-2.4
				c0.3-0.3,0.6-0.7,0.9-0.9c0.8-0.7,1.5-0.5,2.1,0.3c0.5,0.7,1,1.3,1.6,1.9c0.7,0.7,1.5,1,2.5,1c0.2,0,0.5,0,0.7,0.1
				c0.9,0.2,1.2,1,0.6,1.7c-0.1,0.1-0.1,0.2-0.2,0.3c-1.7,1.7-2.7,3.7-3.4,6c-0.1,0.2-0.1,0.5-0.2,0.7c-0.4,0.9-1,1.2-1.9,1
				c-0.5-0.1-0.9-0.3-1.4-0.3c-2.5-0.5-4.7,0.2-6.6,1.9c-0.4,0.3-0.7,0.7-1.1,1.1c-0.7,0.6-1.3,0.6-2,0c-0.5-0.4-0.9-0.9-1.3-1.4
				c-1.3-1.6-3-2.3-5-2.5c-1.1-0.1-2.1-0.2-3.2-0.3c-0.3,0-0.6-0.1-0.9-0.2C143.7,204,143.6,203.2,144.2,202.6z M161,230.1
				c0.7,1,1.3,1.9,2,2.9c0.1,0.2,0.3,0.4,0.4,0.7c0,0.2,0,0.4-0.1,0.5c-0.2,0.1-0.4,0.1-0.6,0c-0.2-0.1-0.4-0.3-0.5-0.4
				c-0.6-0.7-1.1-1.5-1.7-2.2c-0.2-0.2-0.3-0.4-0.6-0.8c-0.2,0.7-0.3,1.3-0.5,1.9c-0.1,0.5-0.2,1-0.4,1.5c-0.1,0.4-0.2,0.8-0.7,0.8
				c-0.3,0-0.5-0.4-0.4-1c0.1-0.7,0.3-1.3,0.4-2c0.1-0.6,0.3-1.3,0.5-2.1c-0.4,0.3-0.7,0.4-0.9,0.6c-0.7,0.5-1.5,1-2.2,1.5
				c-0.2,0.1-0.3,0.2-0.5,0.3c-0.2,0-0.4,0-0.5-0.1c-0.1-0.1-0.1-0.4,0-0.5c0.2-0.3,0.5-0.6,0.9-0.8c0.7-0.5,1.4-1,2.3-1.7
				c-1-0.1-1.8-0.2-2.6-0.4c-0.4-0.1-0.7-0.1-1-0.3c-0.2-0.1-0.3-0.3-0.3-0.5c0-0.1,0.3-0.3,0.4-0.3c0.4-0.1,0.7,0,1.1,0
				c0.9,0.1,1.7,0.1,2.7,0.2c-0.4-0.7-0.8-1.2-1.1-1.8c-0.3-0.4-0.5-0.8-0.7-1.2c-0.1-0.3-0.2-0.6,0.1-0.8c0.3-0.2,0.5-0.1,0.7,0.1
				c0.3,0.3,0.6,0.6,0.8,1c0.5,0.8,1,1.5,1.6,2.4c0.1-0.2,0.2-0.4,0.2-0.6c0.2-1.1,0.4-2.1,0.7-3.2c0.1-0.3,0.1-0.6,0.2-0.8
				c0.1-0.2,0.3-0.3,0.5-0.4c0.1,0.2,0.3,0.4,0.4,0.6c0.1,0.3,0.1,0.6,0,0.8c-0.1,0.8-0.3,1.6-0.4,2.4c0,0.2-0.1,0.4-0.1,0.8
				c1.1-0.7,2-1.2,2.9-1.8c0.2-0.1,0.4-0.3,0.7-0.4c0.2,0,0.5,0,0.7,0.2c0.2,0.2,0.1,0.5-0.1,0.7c-0.2,0.2-0.3,0.3-0.5,0.4
				c-0.8,0.5-1.6,1.1-2.5,1.6c-0.2,0.1-0.3,0.2-0.6,0.4c1,0.1,1.8,0.2,2.6,0.3c0.4,0,0.7,0.1,1.1,0.1c0.4,0,0.7,0.2,0.7,0.6
				c0,0.3-0.3,0.5-0.8,0.5c-0.7,0-1.4-0.1-2.2-0.1c-0.6-0.1-1.3-0.2-2-0.2C160.9,229.7,160.9,229.9,161,230.1z M121.1,198.6
				c0.8-0.9,1.9-1.4,3-1.7c0.4-0.1,0.9-0.1,1.4-0.2c-0.2-1.2-0.4-2.4-0.6-3.6c-0.1-0.3-0.1-0.6-0.1-0.9c0-0.6,0.4-0.9,0.9-0.7
				c0.4,0.1,0.8,0.3,1.2,0.5c0.9,0.5,1.5,1.3,2,2.2c0.1,0.2,0.2,0.4,0.4,0.7c0.9-1,1.7-2,2.5-3c0.3-0.3,0.5-0.8,1-0.7
				c0.6,0.1,0.8,0.5,0.9,1c0.6,1.5,0.6,2.9-0.4,4.3c-0.1,0.1-0.2,0.3-0.3,0.4c0,0,0,0.1,0,0.2c1.3,0.1,2.4,1,3.6,1.5
				c0.6,0.3,0.8,0.7,0.5,1.4c-0.7,1.8-2.9,2.9-4.8,2.2c-0.3-0.1-0.6-0.2-0.9-0.4c-0.1,0.6-0.1,1.2-0.2,1.7c-0.2,1.5-0.8,2.7-1.8,3.8
				c-0.5,0.6-1.1,0.7-1.5-0.2c-0.2-0.6-0.5-1.1-0.8-1.6c-0.6-1.2-0.8-2.5-0.6-3.8c0-0.2,0-0.3,0-0.6c-1.2,0-2.3-0.4-3.4-0.8
				c-0.4-0.2-1-0.2-1.5-0.3c-0.3-0.1-0.7,0-0.9-0.4C120.6,199.3,120.8,198.9,121.1,198.6z M110,223.5c0.3-1.2,0.6-2.4,1-3.5
				c0.9-2.9,1.8-5.8,2.3-8.8c0.6-3.3,0.8-6.6,0.6-9.9c0-0.6-0.2-1.2-0.3-1.8c-0.8-2.7-1.1-5.3-0.8-8.1c0-0.3,0.1-0.6,0.2-0.8
				c0-0.1,0.2-0.3,0.3-0.3c0.1,0,0.3,0.2,0.3,0.3c0.1,0.2,0.1,0.5,0.1,0.7c0.2,5,1.7,9.5,4,13.8c1,2,2.2,3.9,3.2,5.9
				c0.4,0.8,1.1,1.3,2,1.6c2.1,0.7,4.2,0.8,6.4,0.7c2.4-0.1,4.9-0.3,7.3-0.5c1.5-0.1,2.9-0.2,4.4-0.3c2.3-0.1,4.5,0.2,6.7,0.5
				c0.9,0.1,1.8,0.3,2.6,0.4c0.3,0,0.6,0.1,0.9,0.2c0.8,0.3,1.3,0.9,1.3,1.8c0,0.8,0,1.6-0.3,2.4c-1.3,4.1-4.1,6.6-8.2,7.7
				c-3.9,1-7.6,0.3-11.1-1.4c-1.3-0.7-2.5-1.6-3.8-2.4c-0.3-0.2-0.5-0.4-0.7-0.6c0,0.1-0.1,0.2-0.1,0.2c1.3,2.2,2.6,4.5,4,6.6
				c1.5,2.2,3.2,4.2,5.1,6.1c2.5,2.5,4.5,5.4,5.6,8.8c0.8,2.5,1.1,5,0.4,7.6c-0.3,1.1-0.8,2.1-1.6,3c-0.3,0.3-0.6,0.6-1,0.9
				c-1.1,0.7-2,0.4-2.7-0.6c-2.3-3.6-3.9-7.4-4.5-11.6c-0.3-2.1-0.6-4.1-1-6.2c-0.5-2.7-1.5-5.2-3-7.6c-0.1-0.2-0.2-0.4-0.5-0.5
				c0,0.2,0,0.4,0.1,0.6c0.2,1.6,0.5,3.3,0.6,4.9c0.1,2-0.4,3.9-1.2,5.7c-0.8,1.7-1.7,3.4-2.6,5c-0.5,0.9-1.3,1.1-2.2,0.5
				c-0.9-0.7-1.6-1.6-2.1-2.7c-0.9-2-1-4.1-0.5-6.2c0.5-2.1,1.2-4.1,1.8-6.2c0.6-1.9,1.3-3.7,1.4-5.6c0.1-0.9,0-1.9-0.1-2.8
				c-0.1-0.7-0.4-1.3-0.9-1.9c-1.3-1.6-2.6-3.2-3.9-4.8c-0.1-0.1-0.2-0.1-0.3-0.3c0.1,0.7,0.2,1.3,0.3,1.8c0.3,2.2,0.3,4.4-0.6,6.5
				c-0.3,0.8-0.7,1.5-1.2,2.2c-1,1.4-2.4,2.2-4.1,2.4c-1,0.1-2-0.1-2.8-0.8C110.1,225.4,109.7,224.5,110,223.5z M107.5,248.9
				c0.2,0.1,0.4,0.2,0.7,0.3c0.3-1.4,0.5-2.8,0.7-4.1c0.1-0.3,0.1-0.7,0.2-1c0.2-0.4,0.5-0.5,0.9-0.2c0.1,0.1,0.2,0.2,0.3,0.3
				c1.3,1.7,2.2,3.5,2.2,5.6c0,0.2,0,0.3,0,0.5c0.1,0,0.2,0,0.2,0c1.4-0.8,2.9-1.5,4.3-2.3c0.1-0.1,0.3-0.2,0.4-0.2
				c0.6-0.2,1-0.1,1.2,0.5c0.2,0.5,0.3,1.1,0.3,1.6c-0.2,1.6-1.1,2.8-2.6,3.5c-0.3,0.2-0.7,0.3-1.2,0.5c1.5,0.8,2,2,2.4,3.4
				c0.4,1.2,0.8,2.4,1.3,3.6c0.5,1.3,0.1,2-1.4,1.7c-1.5-0.3-2.7-1.1-3.6-2.2c-0.3-0.4-0.6-0.8-1-1.3c-0.1,0.2-0.2,0.4-0.2,0.6
				c-0.3,0.6-0.6,1.3-1,1.9c-0.7,1-1.6,2-2.4,3c-0.5,0.6-0.9,0.5-1.3-0.1c-0.8-1.2-0.9-2.6-0.6-4c0.2-1,0.6-1.9,0.9-2.9
				c0.1-0.3,0.2-0.5,0.3-0.8c-1.4,0.2-2.7-0.2-4-0.5c-0.8-0.2-1-0.7-0.5-1.4c0.4-0.6,1-1,1.6-1.5c0.2-0.2,0.5-0.3,0.8-0.5
				c-1-0.8-1.4-2-2.1-3.1c-0.5-0.8-0.3-1.3,0.7-1.4C105.7,248.5,106.6,248.6,107.5,248.9z M97.8,291.3c-4.7-0.6-8.8-2.4-12.4-5.5
				c-1.4-1.2-2.6-2.6-3.3-4.3c-0.6-1.3-1.1-2.6-1.5-3.9c-1-3.8-1.1-7.8-0.6-11.7c0.4-3.3,1.6-6.3,3.6-8.9c0.3-0.4,0.6-0.7,1-1
				c0.9-0.6,1.7-1.2,2.6-1.8c2.7-1.5,5.5-2.4,8.5-3c2-0.4,3.9-0.8,5.9-1.2c0,2.4,0,4.8-0.1,7.2c0,3.1-0.1,6.2-0.1,9.3c0,0,0,0-0.1,0
				c0,0.9,0,1.8,0,2.7c0,3.6,0,7.2-0.1,10.8c-0.1,3.9-0.1,7.7-0.1,11.6C100.1,291.6,99,291.5,97.8,291.3z M108.7,319.1
				c0-0.3,0-0.7,0.1-1c0.7-3.4,1.3-6.9,2.3-10.2c0.1-0.3,0.1-0.6,0.1-0.9c-0.1-0.8-0.2-1.7-0.3-2.6c-0.2,0.2-0.3,0.4-0.4,0.5
				c-0.8,1.6-1.6,3.1-2.4,4.7c-0.1,0.2-0.2,0.5-0.4,0.6c-0.2,0.1-0.4,0.2-0.7,0.2c-0.3-0.1-0.4-0.4-0.4-0.7c0-0.2,0.1-0.4,0.2-0.6
				c1.1-2.9,2.1-5.9,3.5-8.7c0.6-1.1,0.6-2.2,0.6-3.5c-0.2,0.3-0.4,0.4-0.5,0.6c-0.9,1.1-1.8,2.2-2.8,3.4c-0.1,0.2-0.3,0.3-0.4,0.4
				c-0.4,0.4-0.8,0.5-1.1,0.2c-0.3-0.2-0.4-0.6-0.1-1.1c0.6-1,1.3-1.9,1.9-2.8c0.9-1.2,1.7-2.4,2.7-3.6c0.6-0.8,0.8-1.7,0.7-2.8
				c-0.2,0.2-0.4,0.3-0.6,0.4c-0.6,0.6-1.1,1.1-1.7,1.7c-0.2,0.2-0.3,0.3-0.5,0.4c-0.3,0.2-0.5,0.2-0.8,0c-0.2-0.2-0.3-0.5-0.1-0.8
				c0.1-0.2,0.2-0.3,0.3-0.5c1-1.1,2-2.3,3.1-3.4c0.3-0.4,0.6-0.7,0.5-1.3c0-0.6,0-1.3,0-2c-0.4,0.4-0.8,0.7-1.1,1
				c-1,0.9-1.9,1.7-2.9,2.6c-0.2,0.2-0.4,0.4-0.7,0.5c-0.3,0.2-0.6,0.2-0.8-0.1c-0.1-0.2-0.2-0.5-0.1-0.8c0.1-0.3,0.4-0.6,0.6-0.8
				c1.2-1.2,2.3-2.5,3.5-3.7c0.1-0.1,0.2-0.2,0.4-0.5c-1,0.2-1.9,0.4-2.8,0.6c-0.6,0.1-1.1,0.3-1.7,0.4c-0.5,0.1-0.9,0-1-0.4
				c-0.1-0.4,0.1-0.7,0.6-0.9c1.8-0.6,3.6-1.1,5.4-1.7c0.2-0.1,0.4-0.1,0.6-0.2c-0.1-1-0.2-2-0.3-3c-0.1-0.7-0.2-1.4-0.3-2.1
				c-0.1-0.8,0.1-1.3,0.6-1.5c0.5-0.1,1.1,0.1,1.3,0.9c0.4,1.1,0.6,2.2,0.8,3.3c0.1,0.2,0.1,0.5,0.1,0.8c0.4,0.1,0.8,0.2,1.2,0.3
				c1.9,0.4,3.6,1.2,5.4,1.9c0.1,0.1,0.3,0.1,0.4,0.2c0.4,0.3,0.6,0.7,0.5,1.1c-0.1,0.4-0.5,0.6-1,0.5c-0.4,0-0.7-0.2-1.1-0.2
				c-1.3-0.3-2.6-0.7-3.9-1c0.3,0.4,0.6,0.7,0.9,1c1.5,1.4,3.1,2.8,4.6,4.3c0.3,0.3,0.6,0.7,0.9,1c0.2,0.3,0.2,0.6,0,0.9
				c-0.3,0.3-0.6,0.4-1,0.2c-0.5-0.3-1-0.5-1.4-0.9c-1.4-1.3-2.8-2.5-4.2-3.8c-0.2-0.2-0.4-0.4-0.8-0.7c0,1.1-0.1,2.1,0,3
				c0,0.2,0.3,0.3,0.4,0.5c2.6,2.4,5.1,4.9,7.4,7.6c0.2,0.3,0.4,0.5,0.6,0.8c0.2,0.4,0.1,0.7-0.2,1c-0.3,0.3-0.7,0.2-1,0
				c-0.2-0.1-0.3-0.3-0.4-0.4c-2.2-2.1-4.4-4.2-6.7-6.3c-0.1-0.1-0.1-0.1-0.2-0.1c-0.2,0.4-0.4,2.3-0.4,3.8c1.8,0.9,3.2,2.4,4.8,3.8
				c0.2,0.2,0.5,0.5,0.7,0.7c0.3,0.4,0.4,0.8,0.1,1.1c-0.2,0.3-0.6,0.3-1.1,0.1c-0.3-0.2-0.6-0.4-0.9-0.6c-1.1-0.8-2.2-1.6-3.4-2.5
				c0,0.2,0,0.4,0,0.5c0.6,2.6,1.8,4.9,3.4,7c1,1.3,2,2.4,3.1,3.7c0.1,0.1,0.2,0.2,0.3,0.3c0.2,0.3,0.2,0.6,0,0.8
				c-0.2,0.3-0.5,0.3-0.8,0.1c-0.3-0.2-0.5-0.3-0.7-0.5c-2.2-1.8-4-4.1-5.4-6.5c-0.1-0.2-0.2-0.3-0.4-0.6c0,0.3-0.1,0.4,0,0.5
				c0.1,1.7,0.3,3.4,0.4,5.1c0,0.5,0.2,0.8,0.6,1c2.7,1.9,5,4.2,7.5,6.4c0.2,0.1,0.3,0.3,0.5,0.5c0.2,0.2,0.2,0.5,0,0.8
				c-0.2,0.3-0.5,0.4-0.8,0.2c-0.3-0.2-0.6-0.4-0.9-0.6c-1.7-1.5-3.5-3-5.2-4.6c-0.2-0.2-0.5-0.4-0.8-0.7c0,0.3,0,0.5,0.1,0.6
				c0.8,2.3,1.8,4.4,3.3,6.4c0.4,0.5,0.7,1,1,1.5c0.1,0.3,0.2,0.6,0.2,0.9c0,0.6-0.6,0.9-1.1,0.7c-0.3-0.1-0.5-0.3-0.8-0.5
				c-1.3-1.1-2.3-2.4-3.1-3.9c-0.8-1.4-1.3-2.9-2-4.4c-0.1-0.2-0.2-0.5-0.4-0.9c-0.2,0.7-0.3,1.1-0.5,1.6c-0.5,1.9-1,3.7-1.5,5.6
				c-0.1,0.3-0.2,0.6-0.3,0.8c-0.1,0.2-0.4,0.3-0.6,0.2C108.9,319.6,108.7,319.3,108.7,319.1z M126.6,338.1c-0.1,0-0.3,0.1-0.4,0.2
				c-0.7,4.7-0.2,9.2,1.2,13.6c0.2,0.5,0.3,1,0.3,1.6c0,1-0.8,1.4-1.7,0.9c-0.3-0.2-0.7-0.4-1-0.6c-1-0.7-2.1-0.9-3.3-0.8
				c-1.2,0.1-2.3,0.2-3.5,0.4c-2.7,0.3-4.9-0.7-6.7-2.6c-0.9-1-1.6-2.1-1.8-3.4c0-0.3,0-0.6,0-0.9c0.1-0.6,0.6-0.9,1.2-0.9
				c0.2,0,0.4,0,0.6,0.1c2.6,0.9,5.2,1.3,7.9,1.9c1.1,0.2,2.1,0.6,3.3,0.9c-0.1-0.2-0.1-0.3-0.2-0.4c-2.3-3.1-4-6.4-5.4-9.9
				c-0.2-0.5-0.5-0.8-0.9-1.1c-1.5-1.1-2.3-2.7-2.3-4.6c0-0.5,0.2-1,0.5-1.5c0.6-1,1.8-1.3,2.8-0.7c2,1.1,3.5,4.6,1.4,6.7
				c0,0,0,0.1-0.1,0.2c1.4,3.9,3.4,7.4,6,10.7c-0.1-0.4-0.1-0.9-0.2-1.3c-0.3-2-0.2-4.1,0-6.1c0-0.3,0.1-0.6,0.1-0.8
				c0.1-0.9,0.1-1.8-0.3-2.7c-0.6-1.3-0.3-2.6,0.3-3.9c0.4-0.8,1.1-1.3,2-1.2c1,0.1,1.7,0.5,2.1,1.4
				C129.3,334.3,128.9,337.2,126.6,338.1z M146.7,348.9c-0.2,0.1-0.5,0.1-0.8,0.2c-0.8,0.1-1.7,0.1-2.5,0.1c-0.2,0-0.4,0-0.7,0.1
				c0.2,0.2,0.3,0.4,0.4,0.6c0.6,0.7,1.3,1.4,1.9,2.1c0.1,0.1,0.3,0.3,0.4,0.5c0.2,0.2,0.2,0.5,0,0.7c-0.2,0.2-0.5,0.2-0.7,0
				c-0.2-0.1-0.3-0.3-0.4-0.4c-0.7-0.7-1.5-1.4-2.3-2.2c0,0.6,0,1.1,0,1.6c0,0.6,0,1.1,0,1.7c0,0.7-0.2,1-0.6,1
				c-0.3,0-0.5-0.3-0.6-1c-0.1-0.7-0.1-1.4-0.1-2.2c0-0.7,0-1.3,0-2c-0.1,0-0.1-0.1-0.2-0.1c-0.2,0.2-0.3,0.3-0.5,0.5
				c-0.8,0.8-1.7,1.7-2.5,2.5c-0.2,0.2-0.6,0.4-0.9,0.6c-0.3-0.5-0.1-0.8,0.2-1c0.5-0.6,1.1-1.3,1.6-1.9c0.2-0.2,0.4-0.5,0.6-0.8
				c-0.6-0.2-1.1-0.1-1.7-0.2c-0.5-0.1-1.1,0.2-1.6-0.5c0.3-0.1,0.5-0.3,0.7-0.4c0.7-0.1,1.3-0.1,2-0.2c0.4,0,0.7-0.1,1.2-0.1
				c-0.1-0.2-0.2-0.4-0.3-0.5c-0.6-0.7-1.2-1.4-1.8-2.1c-0.3-0.3-0.5-0.6-0.7-1c-0.1-0.2,0-0.4,0.1-0.6c0.1-0.1,0.4,0,0.5,0
				c0.2,0.1,0.5,0.3,0.7,0.5c0.6,0.6,1.2,1.3,1.9,1.9c0.1,0.1,0.3,0.3,0.5,0.5c0-0.8,0-1.5,0-2.2c0-0.5,0-1,0-1.5
				c0-0.3,0-0.7,0.4-0.7c0.4,0,0.5,0.3,0.5,0.6c0.1,0.5,0.1,1.1,0.2,1.7c0,0.4,0.1,0.9,0.1,1.4c0.6-0.6,1.1-1.1,1.6-1.5
				c0.2-0.2,0.5-0.6,0.8-0.3c0.3,0.3,0,0.6-0.2,0.9c-0.7,0.9-1.3,1.7-2.1,2.7c0.4,0,0.7,0,1,0c1.1,0,2.1,0,3.2,0
				c0.2,0,0.5,0,0.7,0.1c0.1,0.1,0.3,0.3,0.3,0.4C147,348.6,146.8,348.8,146.7,348.9z M174.6,303.6c0.1,0.5,0.3,1.1,0.4,1.6
				c0.4,1.8-0.2,2.7-2.1,2.6c-0.9,0-1.8-0.1-2.7-0.1c-2.4-0.1-4.7,1.7-5.4,3.6c-0.1,0.2-0.1,0.5-0.3,0.7c-0.7,1.2-0.7,2.4-0.5,3.7
				c0.1,0.7,0.2,1.4,0.4,2.1c0.2,1.1,0.7,2,1.3,2.9c1.8,2.5,3.5,5.1,5.3,7.6c0.1,0.2,0.3,0.4,0.5,0.7c0.1-0.6,0.2-1.1,0.3-1.5
				c0.6-2,1.4-3.9,2.6-5.6c0.3-0.4,0.4-0.8,0.2-1.4c-0.5-1.3-0.4-2.6,0.1-3.8c0.4-0.9,1-1.5,1.9-1.9c0.8-0.3,1.5-0.2,2.1,0.5
				c0.3,0.3,0.5,0.6,0.6,0.9c0.7,1.5,0.2,3.8-0.9,4.9c-0.5,0.5-1,0.8-1.7,0.8c-0.5,0-0.9,0.2-1.2,0.8c-0.7,1.5-1.4,2.9-2.1,4.4
				c-0.7,1.5-0.7,3-0.3,4.6c0.1,0.4,0.3,0.8,0.5,1.1c1.2,2.1,2.3,4.2,2.9,6.5c0.6,2.2,0.8,4.3,0.4,6.5c-0.1,0.6-0.3,1.1-0.5,1.7
				c-0.2,0.4-0.5,0.7-0.8,0.9c-0.2,0.1-0.5,0.1-0.7,0c-0.1-0.1-0.2-0.4-0.2-0.7c0.1-0.7,0.3-1.5,0.4-2.2c0.1-1.9,0-3.8-0.6-5.7
				c-0.6-1.9-2-3.3-3.8-4.1c-0.4-0.2-1-0.2-1.5-0.1c-1.2,0.2-2.2,0.6-3.2,1.3c-1.4,0.9-2.6,2.2-3.6,3.5c-0.3,0.5-0.7,1-1.1,1.4
				c-0.7,0.8-1.5,0.8-2.3,0.1c-0.3-0.2-0.5-0.5-0.7-0.8c-0.4-0.4-0.8-0.8-1.3-1.2c-0.9-0.7-1.9-1-3.1-0.8c-1.6,0.2-3,0.7-4.4,1.5
				c-0.2,0.1-0.4,0.3-0.7,0.4c-1,0.5-1.7,0.3-2.2-0.7c-0.1-0.2-0.2-0.4-0.3-0.7c-1.2-3.1-3.5-4.8-6.8-5.2c-0.7-0.1-1.4-0.2-2.1-0.3
				c-0.8-0.1-1.3-0.5-1.3-1.1c0-0.5,0.3-1,1.1-1.3c1.3-0.4,2.5-0.8,3.8-1.2c2.8-0.8,4.9-2.5,6.3-5.1c0.1-0.1,0.2-0.3,0.2-0.4
				c0.6-0.9,1.2-1.2,2.3-1c0.7,0.1,1.3,0.4,1.9,0.5c0.6,0.2,1.2,0.3,1.9,0.5c2.3,0.5,4.2-0.1,6-1.5c0.3-0.2,0.6-0.5,0.9-0.7
				c0.9-0.6,1.7-0.5,2.4,0.5c0.3,0.4,0.5,0.8,0.7,1.2c1.4,2.7,3.2,5.2,5.4,7.3c0.7,0.6,1.3,1.2,2.4,1.7c-0.2-0.4-0.3-0.6-0.4-0.8
				c-2.5-3.7-4.9-7.4-7.5-11c-1-1.3-2.2-2.5-3.4-3.6c-0.8-0.8-1.9-1.2-3.1-1.2c-2.2,0-4.4,0.3-6.6,1.1c-0.1,0-0.2,0.1-0.3,0.1
				c0,0-0.1,0.1-0.1,0.1c-0.3,1.7-1.5,2.8-3.3,2.8c-0.7,0-1.4,0-2-0.3c-1.4-0.5-1.8-1.9-1-3.1c0.3-0.4,0.8-0.8,1.2-1.1
				c0.9-0.5,1.9-0.6,2.8-0.4c0.5,0.1,0.9,0.4,1.6,0.7c2.4-1.4,5.1-1.9,8.1-1.8c-2.4-2.2-5.2-3.7-7.8-5.6c-1.7,2.2-3.9,2.8-6.4,2.9
				c-1.3,0-2.6,0-3.8-0.1c-0.7,0-1.3,0-2,0.4c-1.1,0.6-2.3,0.8-3.6,0.5c-0.7-0.2-1.3-0.6-1.8-1.1c-0.8-1-0.7-2.2,0.4-3
				c0.8-0.6,1.8-0.8,2.8-0.7c0.3,0,0.6,0.1,0.9,0.2c1.5,0.4,2,0.8,2.7,2.3c2-0.1,4-0.1,6-0.3c0.9-0.1,1.8-0.5,2.7-0.9
				c0.4-0.2,0.7-0.5,1.1-0.8c-3.8-2.7-6.6-6.2-9.1-9.9c-0.2,0-0.4,0-0.5,0c-0.8,0.3-1.5-0.1-2.2-0.6c-0.6-0.5-1.1-1.1-1.4-1.8
				c-0.1-0.3-0.2-0.6-0.2-0.9c-0.2-1.8,1.1-2.9,2.8-2.4c1.3,0.4,2.3,1.3,2.9,2.5c0.4,0.8,0.3,1.3-0.1,2.3c1.5,2.4,5,6.6,6.2,7.4
				c0,0,0.1-0.1,0.1-0.1c-0.6-2.2-1.3-4.3-1.9-6.5c-0.1-0.5-0.3-0.9-0.8-1.2c-0.6-0.5-0.9-1.1-1.1-1.9c-0.2-0.7,0.1-1.3,0.7-1.7
				c0.6-0.4,1.2-0.3,1.7,0c0.9,0.6,1.4,1.6,1.5,2.7c0.1,0.6-0.3,1.1-0.8,1.5c0.5,2.8,1.2,5.5,2.3,8c0.3,0.7,0.7,1.2,1.4,1.6
				c1.5,0.9,2.9,1.9,4.3,2.9c1.1,0.7,2.1,1.4,3.3,2.1c-0.1-0.2-0.3-0.5-0.4-0.7c-2.8-4.5-5.2-9.1-7.2-14c-1.5-3.7-2.6-7.6-3.3-11.6
				c-0.1-0.5-0.3-0.9-0.5-1.3c-1.1-1.8-2.5-3.3-4-4.7c-1.4-1.3-3.2-1.8-5-2c-1.1-0.1-2.3-0.1-3.4-0.1c-0.8,0-1.6-0.1-2.3-0.2
				c-1.2-0.3-1.7-1-1.5-2.3c0.1-0.9,0.3-1.8,0.4-2.6c0.2-2.1-0.9-3.8-2.9-4.4c-0.8-0.3-1.7-0.3-2.6-0.5c-0.4-0.1-0.7-0.1-1-0.3
				c-0.7-0.3-1-0.9-0.8-1.7c0.1-0.3,0.2-0.5,0.3-0.8c0.3-0.6,0.5-1.2,0.8-1.7c1.3-2.4,1.4-4.9,1-7.6c-0.1-0.6-0.2-1.2-0.3-1.8
				c0-0.3,0-0.6,0.1-0.8c0.2-0.6,0.9-0.8,1.4-0.4c0.2,0.2,0.4,0.4,0.6,0.7c0.7,0.9,1.4,1.8,2.1,2.7c0.6,0.7,1.2,1.2,2.1,1.5
				c0.9,0.3,1.8,0.2,2.6-0.3c0.5-0.3,0.9-0.7,1.4-1.1c1-0.8,1.8-0.6,2.1,0.6c0.1,0.5,0.2,0.9,0.3,1.4c0.3,1.1,0.5,2.2,0.8,3.2
				c0.3,1.1,0.9,2.1,1.6,3c0.7,0.9,1.5,1.6,2.6,2c1.1,0.4,1.6,1.2,1.6,2.4c0,1.9,0.1,3.7,0.2,5.6c0.1,1.7,0.6,3.3,1.2,4.8
				c0,0.1,0.1,0.1,0.2,0.3c0-0.3,0-0.5,0-0.7c-0.2-6,0.9-11.8,3.3-17.3c0.2-0.5,0.3-0.9,0.3-1.5c-0.2-1.7-0.3-3.4-0.4-5.2
				c-0.2-2.9-0.3-5.8-0.2-8.7c0-1,0.1-2.1,0.1-3.1c0-0.3-0.1-0.6-0.2-0.9c-0.6-1.2-0.7-2.6-0.6-3.9c0.1-0.5,0.2-0.9,0.5-1.3
				c0.8-1.3,2.4-1.3,3.3-0.1c0.8,1.1,1,2.3,0.6,3.7c-0.3,0.9-0.7,1.7-1.5,2.1c-0.3,0.2-0.4,0.4-0.4,0.7c-0.3,3.8-0.2,7.5,0.1,11.3
				c0.1,0.9,0.1,1.8,0.3,2.8c1.8-3.5,4-6.8,6.3-10c-0.8-1.3-0.5-2.5,0-3.7c0.6-1.3,1.3-2.6,2.4-3.6c0.6-0.5,1.2-0.9,1.9-0.9
				c1.6-0.1,2.9,1,3.1,2.6c0.3,2.5-1.3,5.3-3.6,6.4c-0.8,0.4-1.7,0.5-2.6,0.3c-2.8,3.3-8,13.2-8.4,15.8c3.3-1.7,6.6-3.5,9.9-5.2
				c0-1.7,0.8-2.9,2.1-3.7c1-0.6,2-0.6,2.7,0.1c0.7,0.6,1,1.6,0.7,2.7c-0.6,1.7-2.8,3.2-4.4,2.4c-0.2-0.1-0.5,0-0.7,0.1
				c-2.2,1.5-4.7,2.7-7.1,3.9c-1.2,0.6-2.4,1.3-3.6,2c-0.4,0.2-0.7,0.6-0.8,1.1c-0.7,2.8-1,5.6-1.2,8.4c-0.2,3.8,0.4,7.5,1.2,11.2
				c0,0.1,0.1,0.2,0.1,0.3c0.1-0.1,0.2-0.1,0.2-0.2c0.7-1.1,1.5-2.3,2.2-3.4c0.2-0.3,0.3-0.5,0.3-0.8c-0.1-2.1-0.1-4.3-0.1-6.4
				c0-0.5-0.1-1-0.5-1.4c-1-1-1.1-2.5-0.5-3.7c0.7-1.4,2.3-1.5,3.3-0.3c0.8,1,0.9,2.7,0.1,3.7c-0.3,0.4-0.8,0.7-1.2,1.1
				c0,1.9,0,3.9,0,6.1c0.3-0.3,0.4-0.4,0.5-0.5c1.2-1.5,2.4-2.9,3.6-4.4c0.3-0.4,0.4-0.7,0.3-1.2c-0.3-1.4,0-2.6,0.9-3.7
				c1.3-1.5,3.2-1.2,3.9,0.6c0.6,1.6-0.1,3.8-1.6,4.7c-0.7,0.4-1.4,0.4-2.1,0.1c-0.1,0.1-0.2,0.1-0.2,0.2c-1.8,2.4-3.7,4.8-5.5,7.1
				c-1,1.3-2,2.6-2.6,4.2c-0.3,0.7-0.4,1.5-0.1,2.3c1.5,5,3.6,9.7,6.2,14.2c1.6,2.8,3.4,5.5,5.1,8.3c0.1,0.2,0.3,0.4,0.5,0.6
				c0.1-0.3,0.1-0.4,0.1-0.6c-0.1-3.6-0.9-7-2.8-10.1c-0.5-0.8-1-1.6-1.4-2.5c-0.6-1.1-0.4-1.8,0.7-2.4c0.2-0.1,0.5-0.3,0.7-0.4
				c2.1-1.2,3.2-3,3.4-5.3c0.1-1.2,0-2.4-0.1-3.6c0-0.5-0.1-1-0.1-1.5c0-1,0.4-1.6,1.4-1.8c0.7-0.1,1.5-0.2,2.2-0.3
				c1.4-0.2,2.6-0.8,3.6-1.7c1-0.9,1.9-1.9,2.7-3.1c0.7-1,1.4-2.1,2.1-3.1c0.2-0.3,0.5-0.6,0.8-0.9c0.7-0.6,1.7-0.3,2,0.6
				c0.1,0.4,0.1,0.8,0.1,1.1c0,1-0.2,2.1-0.1,3.1c0.1,1.2,0.5,2.3,1.1,3.4c0.5,0.9,1,1.7,1.5,2.6c0.8,1.4,0.7,2.2-0.5,3.4
				c-1.1,1.1-2.2,2.3-3.1,3.5c-1.1,1.3-1.7,2.8-2,4.5C174.1,301.3,174.3,302.4,174.6,303.6z M185.9,258.9c-0.3,0.3-0.8,0.3-1.3-0.3
				c-0.6-0.5-1.1-1.1-1.6-1.7c-0.2-0.2-0.4-0.5-0.6-0.7c0,0-0.1,0.1-0.1,0.1c0,0.1,0,0.2,0.1,0.3c0.9,2.1,1.8,4.3,2.7,6.4
				c0.1,0.2,0.2,0.4,0.2,0.5c0.1,0.3,0.1,0.6-0.3,0.8c-0.3,0.1-0.5-0.1-0.7-0.3c-0.2-0.2-0.3-0.5-0.4-0.7c-0.6-1-1.2-2-1.8-3
				c-0.1-0.1-0.2-0.3-0.4-0.5c-0.1,0.3-0.2,0.4-0.1,0.5c0.1,0.3,0.2,0.6,0.3,0.9c0.8,2.8,1.7,5.6,2.5,8.4c0,0,0,0.1,0,0.1
				c0.1,0.6,0,0.9-0.4,1.1c-0.4,0.1-0.6-0.1-0.9-0.7c-0.4-1-0.8-2.1-1.2-3.1c-0.2-0.5-0.4-0.9-0.8-1.4c0,0.3-0.1,0.5-0.1,0.8
				c-0.1,1.8-0.1,3.5-0.2,5.3c0,0.3-0.1,0.6-0.2,0.9c-0.2,0.5-0.6,0.7-1.1,0.7c-0.4,0-0.8-0.4-0.9-0.8c-0.1-0.3,0-0.6,0-0.9
				c0-1.2,0-2.4-0.1-3.7c-0.1,0.5-0.2,1-0.3,1.5c-0.2,1.1-0.5,2.1-1,3.1c-0.2,0.4-0.5,0.6-0.9,0.5c-0.5-0.1-0.6-0.5-0.6-0.9
				c0-0.7,0.1-1.4,0.1-2.1c0-0.3,0.1-0.7,0-1.1c-0.2,0.2-0.3,0.4-0.5,0.6c-0.2,0.2-0.5,0.4-0.8,0.3c-0.4-0.2-0.5-0.5-0.4-0.8
				c0.2-0.7,0.4-1.3,0.6-2c0.1-0.2,0.1-0.4,0.2-0.6c-0.5-0.1-0.9-0.2-1.4-0.3c-0.2,0.3-0.4,0.7-0.6,1c-0.1,0.2-0.2,0.4-0.4,0.6
				c-0.3,0.4-0.7,0.5-1,0.3c-0.4-0.2-0.6-0.5-0.5-1c0-0.2,0.1-0.5,0.2-0.7c0.4-0.8,0.7-1.6,1.1-2.3c0.1-0.3,0.2-0.6,0.4-0.9
				c-0.2,0-0.4,0-0.5-0.1c-0.4-0.2-0.6-0.5-0.5-0.9c0.1-0.4,0.4-0.8,0.6-1.1c0.8-1.1,1.7-2.2,2.5-3.2c0.7-0.9,0.9-1.9,1.2-3.2
				c-0.2,0.2-0.2,0.2-0.3,0.3c-0.1,0.1-0.1,0.2-0.2,0.3c-0.4,0.7-0.7,1.4-1.1,2.1c-0.1,0.2-0.2,0.4-0.4,0.5
				c-0.2,0.2-0.5,0.3-0.8,0.2c-0.3-0.1-0.5-0.4-0.5-0.7c0-0.3,0.1-0.7,0.2-1c0.7-1.8,1.4-3.6,2-5.4c0.1-0.2,0.2-0.5,0.1-0.7
				c-0.5,0.8-1.1,1.6-1.6,2.4c-0.3,0.4-0.5,0.7-0.8,1.1c-0.2,0.3-0.6,0.4-0.9,0.2c-0.4-0.2-0.5-0.5-0.4-0.9c0.1-0.3,0.2-0.7,0.4-1
				c0.7-1.4,1.3-2.8,2-4.1c0.1-0.3,0.2-0.5,0.2-0.9c-0.2,0.3-0.4,0.5-0.6,0.8c-0.1,0.2-0.2,0.4-0.4,0.5c-0.2,0.1-0.4,0.2-0.6,0.1
				c-0.3-0.1-0.3-0.4-0.2-0.6c0.2-0.5,0.5-1,0.7-1.6c-0.1,0.1-0.3,0.2-0.4,0.3c-0.7,0.8-1.2,1.8-1.7,2.9c-0.2,0.5-0.4,0.9-0.7,1.3
				c-0.2,0.3-0.5,0.5-0.9,0.3c-0.4-0.2-0.6-0.5-0.5-0.9c0.1-0.5,0.2-1,0.3-1.5c0.4-1.4,0.9-2.7,1.4-4.1c0.1-0.2,0.1-0.3,0.1-0.6
				c-0.3,0.2-0.5,0.4-0.7,0.4c-0.2,0.1-0.5,0.1-0.7-0.1c-0.1-0.1-0.2-0.4-0.2-0.7c0-0.3,0.2-0.5,0.4-0.7c0.4-0.6,0.9-1.2,1.3-1.7
				c0.1-0.2,0.3-0.4,0.4-0.6c0,0-0.1-0.1-0.1-0.1c-0.3,0.2-0.7,0.4-1,0.7c-0.3,0.2-0.5,0.4-0.8,0.5c-0.3,0.1-0.7,0.1-0.9-0.2
				c-0.2-0.3-0.2-0.6,0-0.9c0.1-0.2,0.3-0.3,0.4-0.5c0.8-0.8,1.7-1.6,2.9-2c-0.1-0.4-0.2-0.7-0.2-1.1c0-0.5-0.1-1.1,0-1.6
				c0-0.2,0.2-0.4,0.4-0.5c0.1,0,0.4,0.1,0.5,0.3c0.3,0.4,0.5,0.8,0.7,1.2c0.2,0.4,0.4,0.9,0.6,1.4c0.3-0.1,0.5-0.1,0.8-0.2
				c1.3-0.3,2.5-0.6,3.8-0.9c0.1,0,0.3,0,0.4,0c0.4,0,0.7,0.2,0.8,0.6c0.1,0.4,0,0.7-0.4,0.9c-0.3,0.2-0.7,0.3-1,0.4
				c-0.3,0.1-0.6,0.2-1.1,0.4c0.3,0.1,0.4,0.2,0.6,0.2c1.1,0.2,2.2,0.3,3.3,0.5c0.3,0,0.6,0.1,0.8,0.2c0.4,0.2,0.6,0.6,0.5,1
				c-0.1,0.4-0.4,0.5-0.8,0.5c-1.3-0.1-2.7-0.1-4-0.1c-0.3,0-0.5,0-0.8,0.1c0.2,0.1,0.4,0.2,0.6,0.2c2,0.3,3.8,1.2,5.6,2
				c0.2,0.1,0.4,0.2,0.6,0.4c0.3,0.2,0.5,0.6,0.3,1c-0.1,0.4-0.5,0.6-0.8,0.5c-0.5-0.1-1-0.2-1.6-0.3c-0.2,0-0.4-0.1-0.8-0.2
				c0.3,0.2,0.4,0.3,0.6,0.5c1.3,0.9,2.7,1.9,4,2.8c0.1,0,0.1,0.1,0.2,0.1c0.5,0.4,0.6,1,0.3,1.4c-0.3,0.4-0.8,0.6-1.4,0.2
				c-1.1-0.6-2.2-1.3-3.2-1.9c-0.2-0.1-0.5-0.3-0.8-0.3c0.1,0.1,0.2,0.2,0.3,0.3c1.5,1.5,3.1,3,4.6,4.5c0.2,0.2,0.4,0.4,0.4,0.6
				c0,0.2,0,0.6-0.1,0.8c-0.1,0.1-0.5,0.2-0.7,0.1c-0.3-0.1-0.6-0.3-0.9-0.6c-0.8-0.6-1.5-1.1-2.3-1.7c0.1,0.1,0.1,0.3,0.2,0.4
				c1.4,1.9,2.9,3.8,4.3,5.6C186.1,258.2,186.2,258.5,185.9,258.9z M187.3,222.5c-0.4,0.5-0.9,0.9-1.4,1.3c-2,1.9-3.2,4.3-3.7,7
				c-0.1,0.3-0.1,0.5-0.2,0.8c-0.1,0.3-0.4,0.5-0.8,0.5c-0.4,0-0.7-0.2-0.9-0.5c-0.1-0.4-0.2-0.7-0.3-1.1c-0.3-1.3-0.5-2.6-0.9-3.8
				c-0.2-0.7-0.4-1.4-0.7-2.1c-0.5-1.4-1.4-2.4-2.8-2.9c-0.4-0.2-0.8-0.4-1.2-0.6c-0.7-0.5-0.9-1.2-0.5-2.1c0.2-0.4,0.4-0.8,0.7-1.3
				c0.2-0.4,0.4-0.8,0.6-1.3c0.4-1,0.3-1.9-0.5-2.5c-0.6-0.5-1.2-0.9-1.8-1.3c-0.1-0.1-0.3-0.1-0.4-0.2c-0.7-0.5-0.6-1.5,0.2-1.8
				c1.8-0.7,2.9-2.1,3.8-3.7c0.2-0.3,0.3-0.6,0.5-1c0.6-1,1.5-1.2,2.3-0.1c1.2,1.6,2.8,2.7,4.7,3.2c0.4,0.1,0.9,0.2,1.3,0.3
				c1,0.2,1.3,0.8,1.1,1.8c-0.3,1-0.6,2-0.8,3.1c-0.3,1.7,0,3.3,0.7,4.9c0.3,0.5,0.7,1,1,1.5c0.2,0.3,0.4,0.6,0.6,1
				C187.7,221.8,187.6,222.2,187.3,222.5z M187.6,201.5c-1.5,0-3-1.3-3-2.8c0-1.5,1.2-2.8,2.7-2.8c1.6,0,2.7,1.2,2.7,3
				C190.1,200.4,189,201.5,187.6,201.5z"/>
			<path class="st74" d="M143.7,188.3c-5.3,0-10.5-0.5-15.6-1.5c-3.8-0.7-7.6-1.8-11.2-3.3c-1.6-0.7-3.1-1.5-4.4-2.6
				c-0.7-0.6-1.4-1.3-2-2c-1.6-2.2-1.3-4.6,0.5-6.4c1-1,2.2-1.5,3.4-2c4-1.6,8.2-2.4,12.5-3c4.4-0.6,8.7-1.1,13.1-1.6
				c4.4-0.5,8.8-0.5,13.3-0.3c6.6,0.3,13.1,1.3,19.4,3.1c2.1,0.6,4.3,1.3,6.4,2c1,0.4,2,1,3,1.5c0.8,0.5,1.5,1.2,2,2
				c0.6,0.9,0.7,1.8,0.4,2.9c-0.5,2-1.7,3.4-3.5,4.4c-0.6,0.3-1.2,0.6-1.8,0.8c-5.5,2.1-11.1,3.6-16.8,4.5c-3.2,0.5-6.5,0.9-9.8,1.1
				C149.6,188,146.6,188.1,143.7,188.3z"/>
		</g>
	</g>
	<g>
		<path class="st80" d="M320.2,103.7c0.3,6.3-0.6,12.3-2.6,18.2c-2.3,6.8-6,12.7-11,17.8c-3.8,3.9-8,7.2-12.6,10
			c-5.6,3.4-11.5,6.5-17.4,9.5c-3.2,1.6-6.3,3.5-9.4,5.2c-4.3,2.3-8.6,4.6-12.9,7c-3.2,1.8-6.3,3.8-9.3,5.9c-2,1.4-3.9,3-5.7,4.7
			c-1.7,1.6-3.1,3.5-4.1,5.6c-0.2,0.4-0.4,0.8-0.6,1.2c-0.2,0.3-0.4,0.6-0.8,0.5c-0.3-0.1-0.5-0.4-0.4-0.9c0.3-1.1,0.6-2.2,1-3.3
			c1.1-2.5,2.6-4.7,4.4-6.8c3.1-3.6,6.6-6.8,10.3-9.7c2.1-1.6,4.2-3.2,6.4-4.7c6.5-4.5,13-9.1,19.3-14c5.1-4,10-8.1,14.4-12.7
			c3.8-4,7.3-8.3,10.1-13.1c1.9-3.2,3.4-6.5,4-10.1c0.6-3,0.7-6.1,0.1-9.1c-0.3-1.5-0.9-3-1.8-4.3c-1.5-2.1-3.5-3.1-6.1-3
			c-1.2,0.1-2.4,0.3-3.6,0.8c-2.7,1.1-4.9,2.8-6.8,5c-2,2.4-3.7,5-5.1,7.8c-1,1.9-1.6,3.9-2.1,6c-0.1,0.2-0.1,0.5-0.2,0.7
			c-0.1,0.2-0.4,0.4-0.6,0.5c-0.2,0-0.6-0.2-0.6-0.4c-0.2-0.5-0.4-1.1-0.4-1.7c-0.1-1.5,0.1-3.1,0.5-4.5c2.6-9,7.6-16.3,15.4-21.6
			c2.9-1.9,6-3.3,9.4-4c7.7-1.6,13,2.4,15.7,7c1.4,2.4,2.2,5,2.7,7.8C320,101.9,320.1,102.9,320.2,103.7z"/>
		<path class="st82" d="M224.4,129.2c0,5.4,0.3,9.1,0.7,12.8c0.6,5.9,1.2,11.9,1.7,17.8c0.3,3.2,0.4,6.3,0.3,9.5
			c-0.1,6.1-1.1,12.1-2.7,18c-1.2,4.6-2.7,9.1-4.9,13.4c-0.9,1.7-1.9,3.3-3,4.8c-0.1,0.1-0.2,0.3-0.3,0.4c-0.2,0.2-0.5,0.3-0.8,0
			c-0.2-0.2-0.2-0.5-0.3-0.7c0-0.1,0.1-0.2,0.1-0.3c0.7-1.6,1.3-3.1,2-4.7c1.7-3.7,2.6-7.6,3.3-11.5c1.1-6.1,1.4-12.2,1.2-18.3
			c-0.2-5.8-0.4-11.6-0.7-17.4c-0.1-2.8-0.6-5.5-0.9-8.3c-0.3-3.2-0.6-6.3-0.9-9.5c-0.3-2.7-0.5-5.4-0.7-8.1
			c-0.5-6.1-0.5-12.3,0.2-18.4c0.9-8.2,3.7-15.7,8.7-22.3c4.5-5.9,10.3-9.8,17.4-12c2-0.6,4.1-1.2,6.2-1.4c3.2-0.3,6.3-0.1,9.3,0.9
			c5.6,1.8,9.1,5.6,10.9,11.1c0.7,2.2,1.1,4.5,1.1,6.7c0.1,4-0.3,8-1.4,11.9c-1.3,4.3-3.6,8-6.5,11.4c-0.4,0.5-0.9,0.9-1.4,1.3
			c-0.2,0.1-0.4,0.3-0.6,0.3c-0.2,0-0.5,0-0.7-0.1c-0.3-0.2-0.3-0.5-0.1-0.7c0.3-0.5,0.6-0.9,0.9-1.4c1.4-1.9,2.4-3.9,3.2-6.1
			c1.9-6,2-11.9-0.4-17.7c-0.4-1-0.9-1.9-1.5-2.8c-2.8-4.3-6.8-6.5-11.9-6.6c-3.2-0.1-6.2,0.8-9.1,2.2c-1.2,0.5-2.2,1.2-3.1,2
			c-3.7,3.2-6.4,7.1-8.5,11.6c-2.2,4.7-3.7,9.6-4.8,14.7C225.1,118,224.4,124.4,224.4,129.2z"/>
	</g>
</g>
</svg>
