<?xml version="1.0" encoding="utf-8"?>
<!-- Generator: Adobe Illustrator 18.1.1, SVG Export Plug-In . SVG Version: 6.00 Build 0)  -->
<svg version="1.1" id="Capa_1" xmlns="http://www.w3.org/2000/svg" xmlns:xlink="http://www.w3.org/1999/xlink" x="0px" y="0px"
   viewBox="0 0 1400 980" enable-background="new 0 0 1400 980" xml:space="preserve">

<g>
  <path fill="#5B5B5F" d="M603,312.4c92.1-1,177.7,7.5,265.1,11.8c35.5,1.7,73.3,2.7,108.6,1.9c23.2-0.5,47.5-4.3,71.4-6.1
    c24.8-1.9,50.3-1.3,68.7-7.2c-18.1-3.8-39.7-1.7-58.3-0.9c-19.6,0.9-39.2,2.7-58.2,3.6c-68.5,3.2-142.3,2.9-201.3-0.7
    c-79.2-4.7-155.8-9.8-239.9-8.7c-41.8,0.6-96.1,0.6-128.3,6.9c-6.4,1.2-15.2,2.9-13.1,5.9C473.3,309.2,539.6,313,603,312.4z"/>
  <path fill="#5B5B5F" d="M797.9,326.3c-123.5-4.7-279.2-22.9-393.3,0.3C526.6,308.5,670.9,333,797.9,326.3z"/>
  <path fill="#5B5B5F" d="M1337.6,343.5c7.1,0.2,15.3,0.7,24,1.4v-4.3C1349.3,341.2,1337.9,342,1337.6,343.5z"/>
  <path fill="#5B5B5F" d="M1210.9,319.5c43.4-2.4,95.3,5.6,150.7,6.9v-4.7C1312.8,316.5,1247.4,310.9,1210.9,319.5z"/>
  <path fill="#5B5B5F" d="M1266.2,301c-40-0.5-86,2.3-124.4,5.7c-3.2,3.1-10.5,6.6-7.8,10.4c51-4.9,157.5-7.3,227.6-1.7v-4.1
    C1328.1,305.8,1287.6,301.3,1266.2,301z"/>
  <path fill="#5B5B5F" d="M1286.1,343c5.9-1.4,42-3.7,75.5-5.3v-6.2C1322.2,334.2,1284.6,338.2,1286.1,343z"/>
  <path fill="#5B5B5F" d="M668.7,359.9c-8.2,1.5-28.1,1.9-43.6,3.4c-12.7,1.3-24.9,3.7-35.7,4.5c-10.5,0.7-23.3-1.5-30.4,2.7
    c32.6,1.7,64.2-1.6,95.3-1.3c91.7,0.8,173.5,13.6,265.1,12.9c-31-8.7-74.7-9.1-118.1-12.6C758,366,718.2,358.1,668.7,359.9z"/>
  <path fill="#5B5B5F" d="M455.6,368.6c-27.8,1.6-54.5,6.8-82,6.8c-27.1,0-55.2-1.8-78.2-3.5c-15.1-1.1-29.4-4.2-41.1-4
    c-6.6,0.1-16.8,0.8-17.1,4.8c25.4-1.9,43.8,1.8,64.9,3.1c16.8,1.1,34,2.1,50.4,2.2c39.2,0.2,78.1-4.9,120.4-6.8
    c26.7-1.2,46.4,2,68.9,0.8c-10.4-3.8-26-3.3-38.5-3.5C488.5,368.2,472.5,367.6,455.6,368.6z"/>
  <path fill="#5B5B5F" d="M932.7,385.4c28.7-0.8,77.6,2.9,112.5-1c-26.1-0.8-63.4-4-90.1-4.5C940.6,379.7,932.7,380.2,932.7,385.4z"
    />
  <path fill="#5B5B5F" d="M1292.2,347.4c-36.7,1.8-72.5,8.3-107,13.4c-16.6,2.5-34.4,4.6-52.8,7c-36.8,4.7-69.1,6.7-112.5,5
    c-61.9-2.5-107.9-5.3-173.7-10.7c-3.7,1.8-6.9,3.9-9.2,6.4c68.3,6.3,154.7,14,243.8,9.2c40.6-2.2,80.9-11.6,116.3-14.7
    c0,0.6-1.1,0.7-1.3,1.2c-21.1,1.8-32.3,6.5-46.2,10.3c-6.6,1.8-15.4,2.2-17.1,5.4c66.7-9.7,148.8-13.6,227.5-16.8
    c-5.9-5-23.7-5.5-37.2-5.8c-34.1-0.6-74.5,2.6-100.6,3.1c26.3-3,58.3-7.1,91.2-7.5c14-0.2,32.8,1,48.1,1.2v-4.6
    C1342.8,346.6,1314.6,346.3,1292.2,347.4z"/>
  <path fill="#5B5B5F" d="M167,367.2v-0.1c-31.9-4.5-61.8-11.4-104.8-10.3c-3.2,2-21,5.4-20.5,7.1c30.1-0.8,63.6,5.6,94.6,8.6
    c9.1,1,18.4,1.7,28,1.7c16.6,0,31.8-1.9,47.6-1.8c-7.3-3.6-17.4-2.2-26.5-3.1C179.2,368.8,173.1,368.1,167,367.2z"/>
  <path fill="#5B5B5F" d="M695,351.6c-20,0.1-40.4,2.4-55.6,3.6c-51,4-94.6,3-136.4,0.2c-25-1.7-60-6.3-82.2-3.4
    c-50.2,6.5-106.3,13.7-166.7,11.4c9.2,2.7,23.1,3.5,34.5,4.1c39.4,1.9,87.3-4.3,136.3-4.1c49.5,0.1,100.7,1.6,144.3-0.3
    c40.5-1.7,78.5-7.8,121.7-7.9c52.2-0.2,87.4,14.2,135.3,10.7c-5.4-4.5-19.1-3.6-29.2-4.7C766.9,357.6,733,351.4,695,351.6z"/>
  <path fill="#5B5B5F" d="M175.9,353.6c-3-0.5-5.9-0.9-8.9-1.4V352c-31.7-5.2-63.6-11.9-98.5-13.6c-2,0.9-16.6,1.4-30.2,2.1v4.3
    c31.6,2.5,71,7.5,94.7,11.3c2.3,0.5,4.7,0.9,7.2,1.4c20.2,3.6,42.8,7.1,65,8.2c10.6,0.5,27.6,1.8,38.4-2.2
    C221.7,359,198.1,357,175.9,353.6z"/>
  <path fill="#5B5B5F" d="M38.4,311.2v4.1c21.4,1.7,39.5,4.2,51.5,7.6C82.2,319.3,62,315,38.4,311.2z"/>
  <path fill="#5B5B5F" d="M167,312.1V312c44.1-0.1,94.6,1,126.2,3.4c17.9,1.3,36,2.2,53,3.8c16.9,1.6,33.6,5.3,50.4,3.3
    c-3-4.4-16.2-5-26.6-6.5c-24-3.5-44.2-6.7-77-8.1c-45.8-1.9-85-6.4-129.6-3.6c-40.9,0.2-76.3,2.7-88.5,10
    C102.3,313.1,134.4,312.3,167,312.1z"/>
  <path fill="#5B5B5F" d="M54.4,353.4c-3.7-1.7-9.3-3.1-16-4.1v4.6C44.4,353.9,49.9,353.8,54.4,353.4z"/>
  <path fill="#5B5B5F" d="M78.4,325.9c-10.7-1.1-24.6-2.7-40-4.3v4.7C51.5,326.6,64.9,326.5,78.4,325.9z"/>
  <path fill="#5B5B5F" d="M38.4,337.6v-6.2c12.3-0.8,24.8-1.5,36.4-2.1c12.5-1.3,28.6-1.5,40.8-1.4c2.9,0,5.3,0,7,0
    c14.6,0.5,29.4,1.2,44.4,2v0.1c47.6,2.6,97,6.3,146.3,5.6c-53.2-5.3-113.2-10.6-177.6-9c-0.8-0.6-0.7-1.1-0.1-1.6
    c1.5-1.3,7.9-1.9,10.8-2.1c6.5-0.6,13.4-0.9,20.6-1.1v0.1c17.7-0.3,36.8,0.6,53.4,1.2c39.4,1.4,80.5,5.6,103.5,11.1
    c15.8,0,25.4,0.1,39.7-1.1c-5.8-2.3-12.5-2.5-18.6-2c-55-7-136.7-12.5-210.4-12.5c-13.4,0.3-27.2,0.8-41.4,1.5
    c23-5,21.7-3.2,49.1-4.1c8.2-0.3,16.4-0.5,24.7-0.6v0.1c71.7-1.4,145.9,1.6,199.1,9.5c9.8,1.5,21.5,4.3,30.5,4.7
    c13.8,0.7,32.9-2.9,50.3-4.1c72.9-5.3,152.8-0.9,219.9,3.3c25.4,1.6,52.8,4.5,76.9,4.1c16.3-0.3,31.6-2.5,47.6-2.9
    c19.9-0.6,41.5-0.3,62.2-0.3c34.6,0.1,66.9,1.3,98,0.9c85.3-0.9,173.9-11.8,254.1-9.8c-47,2.8-89.5,7.3-133.6,11.5
    c-81.9,7.8-173.1,7-268.8,4.3c26,3.1,52.3,3,78.2,4.1c20.7,0.9,38.2,3.4,57,3.2c64.9-0.5,123.6-3.7,186.6-9.4
    c11-1,18.2-1.8,30.4-2.1c16.7-0.4,32.8-4.5,50.2-5.2c4.8-0.2,9.9,0.6,14.6,0.4c12.6-0.6,16.4-0.6,29.8-0.4
    c34.6,0.6,20.8-5.3,46.9-1c9.1,1.5,35.6,0.2,40.6,4.5c-43.1-1.1-61,9.3-103.7,16.1c-16.1,2.6-32.8,4.1-46.2,6.3
    c-14.1,2.3-25.7,6-39.6,6.8c-12.1,0.7-20.4-1-29.1,1c-1.5-0.1-0.7-0.6,0-0.6c1.2-0.3,2.4-0.5,2.6-1.2c-32.2,0.5-57.5,5.1-92.6,5.8
    c-1.7-1.8,4.3-0.5,2.6-2.3c-5.7,0.1-11.5,0.2-17.2,0.2c-3.9,0.2,5.3,2,0.1,2.9c-5.2-0.4-10-0.9-12-2.7c-8.1,1.2-13.9-0.2-19.8,2.6
    c-5.8-2.8-9.3-1-19.9-2.6c-6.4,0.3,1.6,0.2,0,1.7c-10.6-2.7-22.6-2.4-37.1-2.3c-2.2,0.4-0.8,1.3,1.3,1.1c-2.7,2.1-4.7-0.9-5.3-1.6
    c-6.2,0.6-11.5-0.6-17.2-0.9c-1.4-0.1-3.8,0.8-5.3,0.6c-4.5-0.5-7.4-2.3-12-2.7c-4.6-0.4-8.7,1-13.2,0.8
    c-7.2-0.4-14.3-4.6-21.2-1.4c-8.9-5.8-29-3.5-50.4-5c-24.7-1.7-53-5.9-80.9-8.6c-25-2.4-40.2-1.5-70.2,1c-13.9,1.1-28.1,3.2-42.3,4
    c-16.1,0.8-34.2,0.5-49,1.2c-11.7,0.6-25.4,1.1-35.7,0.5c-3.6-0.2-6.7-1.5-10.6-1.6c-9.2-0.2-18.1,1.2-25.2-1.9
    c-12.3,1.8-20.5-2.1-23.8-0.2c-26.4-7.6-61.1,1.4-97.9,5.9c-23.6,2.9-49.6,7.3-70.1,6.7c-3.6-0.1-5.7-1.2-9.3-1.6
    c-10-1.1-21.4-0.2-31.8-0.7c-30.4-1.4-59.2-5.2-84.9-8.5c-27.2-3.5-48.7-9.2-73.1-13.3c-0.8-0.1-1.7-0.2-2.6-0.4
    C86.3,335.7,63.1,336.4,38.4,337.6z M488.2,340.2c51.8,4.2,119.6,4,169.5,0C609.4,339.1,541.9,333.6,488.2,340.2z"/>
</g>

</svg>
